<svg width="24" height="24" viewBox="0 0 24 24" fill="none" xmlns="http://www.w3.org/2000/svg">
<g clip-path="url(#clip0_548_1688)">
<path d="M23.5827 16.7089L17.4529 13.9751C17.1839 13.8551 16.869 13.9158 16.6633 14.1272C16.2561 14.546 15.2948 15.5283 14.7065 16.1071C13.5363 15.2841 12.2858 14.202 11.061 12.9506C11.0577 12.9473 11.0544 12.944 11.0512 12.9407C9.82087 11.7319 8.78028 10.523 7.95209 9.34061C8.66181 8.62271 9.91169 7.38672 9.92725 7.3713C10.1354 7.16546 10.1948 6.85192 10.0759 6.58388L7.36011 0.454902C7.22022 0.138977 6.87195 -0.0287084 6.53833 0.0595377L1.82025 1.30507C0.388368 1.67017 -0.310545 3.17237 0.131654 4.61036C1.49634 9.04908 3.4607 12.8332 7.29566 16.7281C7.29694 16.7294 7.29822 16.7307 7.2995 16.732L7.32404 16.7566C7.32532 16.7579 7.3266 16.7591 7.32788 16.7604C12.395 21.7694 16.9662 23.1806 19.422 23.9386C20.8429 24.3771 22.3524 23.6944 22.7208 22.2477L23.9762 17.5341C24.0652 17.1995 23.8984 16.8496 23.5827 16.7089ZM21.3609 21.8884C21.3602 21.8914 21.3594 21.8943 21.3587 21.8972C21.193 22.5533 20.4895 22.7938 19.836 22.592C17.3311 21.8187 13.1389 20.5247 8.31739 15.7595L8.29486 15.7367C3.53852 10.9054 2.14527 6.37363 1.47547 4.19555C1.27405 3.54003 1.51465 2.83571 2.16889 2.67004C2.17108 2.66949 2.17328 2.66894 2.17548 2.66821L6.31787 1.57495L8.59369 6.71083C8.0116 7.28801 6.87214 8.42072 6.5365 8.77627C6.31238 9.01367 6.2807 9.37455 6.46015 9.64772C7.38776 11.06 8.59955 12.5048 10.0617 13.9419C11.5166 15.4279 13.0153 16.6924 14.3958 17.5985C14.6622 17.7733 15.0126 17.7469 15.2499 17.5343C15.6207 17.2018 16.7518 16.051 17.328 15.4615L22.4627 17.7517L21.3609 21.8884Z" fill="#7BBA26"/>
<path d="M12.0002 1.4322C17.8415 1.4322 22.5938 6.17272 22.5938 11.9995C22.5938 12.3885 22.9086 12.704 23.2968 12.704C23.6851 12.704 23.9999 12.3885 23.9999 11.9995C23.9999 5.39575 18.6169 0.0231934 12.0002 0.0231934C11.6119 0.0231934 11.2971 0.338568 11.2971 0.727695C11.2971 1.11682 11.6119 1.4322 12.0002 1.4322Z" fill="#7BBA26"/>
<path d="M12.0002 4.25055C16.2648 4.25055 19.7344 7.72683 19.7344 11.9999C19.7344 12.3888 20.0492 12.7044 20.4376 12.7044C20.8258 12.7044 21.1407 12.3888 21.1407 11.9999C21.1407 6.94986 17.0402 2.84155 12.0002 2.84155C11.6119 2.84155 11.2971 3.15693 11.2971 3.54605C11.2971 3.935 11.6119 4.25055 12.0002 4.25055Z" fill="#7BBA26"/>
<path d="M12.0002 7.06843C14.7141 7.06843 16.9219 9.28063 16.9219 11.9999C16.9219 12.3889 17.2367 12.7044 17.6251 12.7044C18.0134 12.7044 18.3282 12.3889 18.3282 11.9999C18.3282 8.50385 15.4895 5.65942 12.0002 5.65942C11.6119 5.65942 11.2971 5.97498 11.2971 6.36393C11.2971 6.75305 11.6119 7.06843 12.0002 7.06843Z" fill="#7BBA26"/>
</g>
<defs>
<clipPath id="clip0_548_1688">
<rect width="24" height="24" fill="white"/>
</clipPath>
</defs>
</svg>
