<svg width="34" height="34" viewBox="0 0 34 34" fill="none" xmlns="http://www.w3.org/2000/svg">
<rect width="34" height="34" rx="6" fill="#03A9F4"/>
<g clip-path="url(#clip0_548_1710)">
<path d="M30 8.93837C29.0331 9.3625 28.0029 9.64362 26.9287 9.78012C28.0337 9.12037 28.8771 8.08362 29.2736 6.834C28.2434 7.44825 27.1059 7.88213 25.8936 8.12425C24.9154 7.08263 23.5211 6.4375 22.0001 6.4375C19.0491 6.4375 16.6734 8.83275 16.6734 11.7691C16.6734 12.1916 16.7091 12.5979 16.7969 12.9846C12.3655 12.7685 8.44438 10.6446 5.81025 7.40925C5.35037 8.20713 5.08063 9.12038 5.08063 10.1035C5.08063 11.9495 6.03125 13.5859 7.44825 14.5332C6.59187 14.517 5.75175 14.2684 5.04 13.8767C5.04 13.893 5.04 13.9141 5.04 13.9352C5.04 16.5255 6.88762 18.677 9.3105 19.1726C8.87663 19.2913 8.40375 19.3481 7.913 19.3481C7.57175 19.3481 7.22725 19.3286 6.90387 19.2571C7.5945 21.368 9.55425 22.9199 11.8845 22.9702C10.071 24.3889 7.76838 25.2436 5.27562 25.2436C4.8385 25.2436 4.41925 25.2241 4 25.1705C6.36112 26.6931 9.15938 27.5625 12.177 27.5625C21.9855 27.5625 27.348 19.4375 27.348 12.3947C27.348 12.1591 27.3399 11.9316 27.3285 11.7057C28.3864 10.955 29.2752 10.0174 30 8.93837Z" fill="white"/>
</g>
<defs>
<clipPath id="clip0_548_1710">
<rect x="4" y="4" width="26" height="26" rx="6" fill="white"/>
</clipPath>
</defs>
</svg>
