<svg width="40" height="40" viewBox="0 0 40 40" fill="none" xmlns="http://www.w3.org/2000/svg">
<path d="M20.0002 38.4377C11.7258 38.4377 4.50781 32.8488 2.44637 24.8459C2.36031 24.5121 2.56203 24.1709 2.8965 24.0845C3.22761 24.0009 3.57154 24.2002 3.6576 24.5346C5.57592 31.9845 12.2965 37.1877 20.0002 37.1877C29.305 37.1877 36.8751 29.6176 36.8751 20.3129C36.8751 19.9671 37.1544 19.6879 37.5001 19.6879C37.8456 19.6879 38.1251 19.9671 38.1251 20.3129C38.1251 30.3064 29.9938 38.4377 20.0002 38.4377Z" fill="#6E6E6E"/>
<path d="M2.50024 20.3129C2.15448 20.3129 1.87524 20.0333 1.87524 19.6879C1.87524 9.69403 10.0063 1.56299 20.0001 1.56299C28.2743 1.56299 35.4922 7.15163 37.5537 15.1545C37.6397 15.4884 37.438 15.8295 37.1035 15.9159C36.7743 16.0029 36.4291 15.8003 36.3424 15.4658C34.4241 8.01588 27.7036 2.81298 20.0001 2.81298C10.6951 2.81298 3.12523 10.3828 3.12523 19.6879C3.12523 20.0333 2.8457 20.3129 2.50024 20.3129Z" fill="#6E6E6E"/>
<path d="M2.50023 20.3129C2.34001 20.3129 2.1801 20.2515 2.05833 20.1294L0.183334 18.2544C-0.0611115 18.0103 -0.0611115 17.6151 0.183334 17.371C0.427475 17.1265 0.822678 17.1265 1.06682 17.371L2.94182 19.246C3.18626 19.4901 3.18626 19.8853 2.94182 20.1294C2.82005 20.2515 2.66014 20.3129 2.50023 20.3129Z" fill="#6E6E6E"/>
<path d="M2.50023 20.3129C2.34001 20.3129 2.1801 20.2515 2.05833 20.1294C1.81389 19.8853 1.81389 19.4901 2.05833 19.246L3.93333 17.371C4.17747 17.1265 4.57268 17.1265 4.81682 17.371C5.06126 17.6151 5.06126 18.0103 4.81682 18.2544L2.94182 20.1294C2.82005 20.2515 2.66014 20.3129 2.50023 20.3129Z" fill="#6E6E6E"/>
<path d="M39.375 22.1877C39.2148 22.1877 39.0549 22.1264 38.9331 22.0043L37.0581 20.1293C36.8136 19.8852 36.8136 19.49 37.0581 19.2458C37.3022 19.0014 37.6974 19.0014 37.9416 19.2458L39.8166 21.1208C40.061 21.365 40.061 21.7602 39.8166 22.0043C39.6948 22.1264 39.5349 22.1877 39.375 22.1877Z" fill="#6E6E6E"/>
<path d="M35.625 22.1877C35.4648 22.1877 35.3049 22.1264 35.1831 22.0043C34.9386 21.7602 34.9386 21.365 35.1831 21.1208L37.0581 19.2458C37.3022 19.0014 37.6974 19.0014 37.9416 19.2458C38.186 19.49 38.186 19.8852 37.9416 20.1293L36.0666 22.0043C35.9448 22.1264 35.7849 22.1877 35.625 22.1877Z" fill="#6E6E6E"/>
<path d="M8.74999 34.339C8.40454 34.339 8.125 34.0594 8.125 33.714V17.8047C8.125 17.4589 8.40454 17.1797 8.74999 17.1797C9.09575 17.1797 9.37499 17.4589 9.37499 17.8047V33.714C9.37499 34.0594 9.09575 34.339 8.74999 34.339Z" fill="#6E6E6E"/>
<path d="M31.25 34.3402C30.9042 34.3402 30.625 34.061 30.625 33.7152V17.8047C30.625 17.4589 30.9042 17.1797 31.25 17.1797C31.5955 17.1797 31.875 17.4589 31.875 17.8047V33.7152C31.875 34.061 31.5955 34.3402 31.25 34.3402Z" fill="#6E6E6E"/>
<path d="M31.2526 18.4297H8.75C8.40454 18.4297 8.125 18.1504 8.125 17.8047C8.125 17.4589 8.40454 17.1797 8.75 17.1797H31.2526C31.598 17.1797 31.8776 17.4589 31.8776 17.8047C31.8776 18.1504 31.598 18.4297 31.2526 18.4297Z" fill="#6E6E6E"/>
<path d="M8.74965 18.4312C8.6404 18.4312 8.52901 18.4025 8.42861 18.3418C8.13228 18.1645 8.03676 17.7805 8.21407 17.4842L10.0891 14.358C10.2661 14.0626 10.6497 13.9662 10.9466 14.1438C11.2429 14.3211 11.3385 14.705 11.1611 15.0013L9.28615 18.1275C9.16927 18.3231 8.96236 18.4312 8.74965 18.4312Z" fill="#6E6E6E"/>
<path d="M31.2506 18.4306C31.0379 18.4306 30.831 18.3225 30.7141 18.1275L28.8391 15.0013C28.6618 14.705 28.7573 14.3211 29.0536 14.1438C29.3499 13.9662 29.7335 14.0626 29.9112 14.358L31.7862 17.4842C31.9635 17.7805 31.8679 18.1645 31.5716 18.3418C31.4706 18.4019 31.3598 18.4306 31.2506 18.4306Z" fill="#6E6E6E"/>
<path d="M29.3776 15.3047H10.625C10.2795 15.3047 10 15.0251 10 14.6797C10 14.3339 10.2795 14.0547 10.625 14.0547H29.3776C29.723 14.0547 30.0026 14.3339 30.0026 14.6797C30.0026 15.0251 29.723 15.3047 29.3776 15.3047Z" fill="#6E6E6E"/>
<path d="M17.5005 18.4321C17.4605 18.4321 17.4187 18.4285 17.3775 18.4196C17.0393 18.3522 16.8193 18.0229 16.8874 17.6842L17.5124 14.5576C17.5795 14.2198 17.9057 13.997 18.2481 14.0678C18.5863 14.1353 18.8063 14.4646 18.7382 14.8033L18.1132 17.9295C18.0537 18.2271 17.7925 18.4321 17.5005 18.4321Z" fill="#6E6E6E"/>
<path d="M22.4991 18.4314C22.2073 18.4314 21.9461 18.2263 21.8872 17.9287L21.2622 14.8025C21.1947 14.4638 21.4142 14.1351 21.7523 14.067C22.0953 13.9968 22.4203 14.219 22.4881 14.5568L23.1131 17.6834C23.1805 18.0221 22.9611 18.3508 22.623 18.4188C22.5811 18.4277 22.5393 18.4314 22.4991 18.4314Z" fill="#6E6E6E"/>
<path d="M17.5 22.1797C17.1545 22.1797 16.875 21.9005 16.875 21.5547V17.8047C16.875 17.4589 17.1545 17.1797 17.5 17.1797C17.8458 17.1797 18.125 17.4589 18.125 17.8047V21.5547C18.125 21.9005 17.8458 22.1797 17.5 22.1797Z" fill="#6E6E6E"/>
<path d="M22.5 22.1797C22.1542 22.1797 21.875 21.9005 21.875 21.5547V17.8047C21.875 17.4589 22.1542 17.1797 22.5 17.1797C22.8455 17.1797 23.125 17.4589 23.125 17.8047V21.5547C23.125 21.9005 22.8455 22.1797 22.5 22.1797Z" fill="#6E6E6E"/>
<path d="M22.5008 22.1803C22.4507 22.1803 22.3995 22.1742 22.3488 22.1617L19.8488 21.5367C19.5137 21.4527 19.3102 21.1134 19.3938 20.7789C19.4768 20.4435 19.8155 20.239 20.1512 20.3239L22.6512 20.9489C22.9863 21.0328 23.1902 21.3722 23.1062 21.7066C23.0351 21.9917 22.7806 22.1803 22.5008 22.1803Z" fill="#6E6E6E"/>
<path d="M17.4996 22.1805C17.2197 22.1805 16.9652 21.9909 16.8941 21.7068C16.8096 21.3724 17.0134 21.033 17.3491 20.9491L19.8503 20.3241C20.1842 20.2386 20.5242 20.4437 20.6078 20.7791C20.6923 21.1136 20.4885 21.4529 20.1528 21.5368L17.6516 22.1618C17.6009 22.1744 17.5496 22.1805 17.4996 22.1805Z" fill="#6E6E6E"/>
<path d="M25.6262 29.6836H14.3711C14.0256 29.6836 13.7461 29.4043 13.7461 29.0586C13.7461 28.7131 14.0256 28.4336 14.3711 28.4336H25.6262C25.9716 28.4336 26.2512 28.7131 26.2512 29.0586C26.2512 29.4043 25.9716 29.6836 25.6262 29.6836Z" fill="#6E6E6E"/>
<path d="M25.6262 27.1875H14.3711C14.0256 27.1875 13.7461 26.908 13.7461 26.5625C13.7461 26.2167 14.0256 25.9375 14.3711 25.9375H25.6262C25.9716 25.9375 26.2512 26.2167 26.2512 26.5625C26.2512 26.908 25.9716 27.1875 25.6262 27.1875Z" fill="#6E6E6E"/>
<path d="M22.5027 32.1836H17.5C17.1545 32.1836 16.875 31.9044 16.875 31.5586C16.875 31.2131 17.1545 30.9336 17.5 30.9336H22.5027C22.8482 30.9336 23.1277 31.2131 23.1277 31.5586C23.1277 31.9044 22.8482 32.1836 22.5027 32.1836Z" fill="#6E6E6E"/>
</svg>
