<svg width="40" height="40" viewBox="0 0 40 40" fill="none" xmlns="http://www.w3.org/2000/svg">
<path d="M39.0216 25.6437C38.4418 25.1075 37.6955 24.8177 36.9352 24.7728C37.5396 23.1658 37.8466 21.4738 37.8466 19.7243C37.8466 16.6333 36.8835 13.6882 35.0615 11.2076C34.8039 10.8568 34.3107 10.7813 33.9601 11.039C33.6094 11.2966 33.5339 11.7897 33.7915 12.1404C35.4135 14.3487 36.2708 16.9712 36.2708 19.7243C36.2708 21.643 35.8574 23.4835 35.044 25.1997C34.826 25.3219 34.6202 25.4694 34.432 25.6434L29.103 30.5648C29.0238 30.638 28.6629 30.8757 27.332 30.8757C27.3237 30.8757 27.3152 30.8757 27.3068 30.8757C25.2148 30.87 22.0309 30.8644 19.6259 30.86L18.4915 30.858C17.881 30.858 17.3844 30.4266 17.3844 29.8963C17.3844 29.3738 17.8914 28.9323 18.4915 28.9323H23.5412C25.1523 28.9323 26.4631 27.6948 26.4631 26.1735C26.4631 26.0317 26.4516 25.8924 26.4297 25.7563C27.6852 25.192 28.5286 23.9384 28.5286 22.5037C28.5286 20.5368 26.9387 18.9365 24.9845 18.9365H21.945C20.8474 18.9365 19.9546 18.0421 19.9546 16.9427C19.9546 15.8445 20.8475 14.9511 21.945 14.9511H23.4463H23.4482H27.7407C28.1759 14.9511 28.5286 14.5984 28.5286 14.1632C28.5286 13.7281 28.1759 13.3754 27.7407 13.3754H24.238L24.2427 11.4788C24.2438 11.0436 23.892 10.6901 23.4568 10.689C23.4562 10.689 23.4555 10.689 23.4548 10.689C23.0206 10.689 22.6681 11.0405 22.667 11.4748L22.6623 13.3754H21.9451C19.9787 13.3754 18.3789 14.9756 18.3789 16.9427C18.3789 18.9109 19.9788 20.5122 21.9451 20.5122H24.9846C26.0516 20.5122 26.9529 21.4242 26.9529 22.5037C26.9529 23.3112 26.4469 24.0353 25.723 24.3409C25.1874 23.7731 24.408 23.4145 23.5413 23.4145H11.1768C10.8185 22.2195 10.6369 20.981 10.6369 19.7244C10.6369 18.7247 10.7512 17.7392 10.9763 16.7819C11.0707 16.8438 11.1658 16.9035 11.2616 16.9609C11.6953 17.2206 12.031 17.3505 12.3672 17.3505C12.7031 17.3505 13.0394 17.2208 13.4743 16.9612C15.0316 16.0305 16.3976 14.4843 17.5345 12.3653C18.3628 10.8207 18.8767 9.22312 19.0508 7.68007C20.4585 7.16336 21.9377 6.90086 23.455 6.90086C25.2659 6.90086 27.015 7.2707 28.6536 8C28.7577 8.04632 28.8665 8.06828 28.9735 8.06828C29.2752 8.06828 29.5631 7.89398 29.6937 7.60054C29.8706 7.20304 29.6919 6.73734 29.2943 6.56039C27.4527 5.74078 25.488 5.32523 23.4549 5.32523C21.9591 5.32523 20.4959 5.55273 19.0903 6.00109C18.9791 5.14492 18.5368 4.86046 17.8705 4.50187L12.7424 1.73453C12.5089 1.60851 12.2276 1.60851 11.9941 1.73453L6.86312 4.5032C6.09656 4.91578 5.62633 5.22953 5.61641 6.42953C5.6 8.35054 6.14758 10.4031 7.19984 12.3654C7.92117 13.7098 8.7357 14.8229 9.6332 15.6957C9.25367 16.9962 9.06102 18.3489 9.06102 19.7243C9.06102 21.0455 9.23977 22.3493 9.59313 23.6119C8.91773 23.7866 8.2782 24.0735 7.70602 24.4573C7.45328 23.2397 6.31672 22.3182 4.95641 22.3182H2.80242C1.25719 22.3182 0 23.5071 0 24.9686V35.4772C0 36.9374 1.25719 38.1254 2.80242 38.1254H4.95641C6.50164 38.1254 7.75883 36.9374 7.75883 35.4772V35.4605L12.752 37.6998C12.7687 37.7073 12.7857 37.7142 12.8029 37.7205C14.3502 38.2886 16.3252 38.3273 21.8114 38.3556C25.9651 38.3601 26.5076 38.3601 27.2958 38.3601C29.2794 38.3601 30.2937 38.1803 31.4241 37.068C33.7756 34.8942 36.1273 32.7223 38.4807 30.5487L39.0207 30.05C39.6522 29.4675 39.9999 28.6848 39.9999 27.8465C40 27.0082 39.6523 26.2255 39.0216 25.6437ZM6.18312 35.4772C6.18312 36.0686 5.63289 36.5497 4.95648 36.5497H2.80242C2.12602 36.5497 1.57578 36.0686 1.57578 35.4772V24.9686C1.57578 24.386 2.1375 23.8939 2.80242 23.8939H4.95641C5.62133 23.8939 6.18305 24.3861 6.18305 24.9686V35.4772H6.18312ZM8.58852 11.6205C7.66086 9.8907 7.17797 8.10031 7.19219 6.44265C7.19383 6.24156 7.20875 6.15265 7.21688 6.11875C7.27992 6.06836 7.45445 5.97437 7.61 5.89062L12.3683 3.32296L17.1042 5.87867L17.1237 5.88914C17.2794 5.97296 17.4541 6.06703 17.5175 6.11765C17.5256 6.15179 17.5405 6.24132 17.5421 6.4439C17.5583 8.09687 17.0754 9.88687 16.1458 11.6203C15.1457 13.4843 13.9748 14.8261 12.6663 15.6083C12.4918 15.7124 12.4073 15.7527 12.3676 15.7681C12.328 15.7526 12.2441 15.7124 12.0713 15.609C12.0711 15.6088 12.0709 15.6087 12.0707 15.6086C10.7779 14.8359 9.57375 13.4568 8.58852 11.6205ZM37.952 28.8923L37.4117 29.3912C35.0551 31.5679 32.7002 33.7427 30.3452 35.9196C30.3388 35.9255 30.3324 35.9316 30.3263 35.9377C29.6624 36.5937 29.1842 36.7844 27.2959 36.7844C26.5079 36.7844 25.9656 36.7844 21.8165 36.7799C16.7951 36.7539 14.6871 36.7243 13.3708 36.2502L7.75898 33.7334V26.4844C8.59125 25.5445 9.83641 24.9902 11.1419 24.9902H23.5413C24.0576 24.9902 24.5063 25.2473 24.732 25.6231C24.7363 25.631 24.7404 25.639 24.7449 25.6466C24.8353 25.8055 24.8875 25.9841 24.8875 26.1734C24.8875 26.8259 24.2836 27.3566 23.5413 27.3566H18.4916C17.0123 27.3566 15.8088 28.4959 15.8088 29.8962C15.8088 31.2954 17.0123 32.4337 18.4902 32.4337L19.6232 32.4357C22.0277 32.44 25.211 32.4457 27.303 32.4513C27.3127 32.4514 27.322 32.4514 27.3316 32.4514C28.7315 32.4513 29.635 32.2191 30.1727 31.7218L35.5017 26.8005C36.1657 26.1863 37.2877 26.1862 37.9525 26.8012C38.2568 27.082 38.4244 27.4532 38.4244 27.8465C38.4242 28.2399 38.2566 28.6112 37.952 28.8923Z" fill="#6E6E6E"/>
<path d="M32.0067 9.92595C32.2083 9.92595 32.41 9.84908 32.5638 9.69525C32.8715 9.38751 32.8715 8.88868 32.5638 8.58095L32.5616 8.57876C32.254 8.27126 31.7561 8.2722 31.4485 8.57993C31.1408 8.88759 31.1419 9.38751 31.4496 9.69533C31.6034 9.84908 31.8051 9.92595 32.0067 9.92595Z" fill="#6E6E6E"/>
<path d="M12.0238 11.3501C12.2291 11.3501 12.4339 11.2704 12.5881 11.1122L15.3687 8.25974C15.6723 7.9481 15.666 7.44927 15.3544 7.1456C15.0428 6.84185 14.544 6.84818 14.2402 7.15982L11.9988 9.45943L11.2209 8.73131C10.9032 8.43396 10.4047 8.45029 10.1072 8.76818C9.80985 9.08584 9.82633 9.58443 10.144 9.88177L11.4855 11.1376C11.6373 11.2796 11.8308 11.3501 12.0238 11.3501Z" fill="#6E6E6E"/>
</svg>
