<svg width="40" height="40" viewBox="0 0 40 40" fill="none" xmlns="http://www.w3.org/2000/svg">
<g clip-path="url(#clip0_536_700)">
<path d="M37.7824 22.6533C37.358 22.5714 36.949 22.849 36.8674 23.2726C35.3144 31.332 28.2206 37.1815 20 37.1815C11.9525 37.1815 4.98505 31.5758 3.2381 23.779L3.442 23.9829C3.59458 24.1355 3.7945 24.2118 3.99442 24.2118C4.19435 24.2118 4.39427 24.1354 4.54677 23.9829C4.85192 23.6779 4.85192 23.1833 4.54685 22.8781L2.94021 21.2714C2.79372 21.1248 2.59497 21.0425 2.38778 21.0425C2.1806 21.0425 1.98185 21.1248 1.83536 21.2714L0.228799 22.8781C-0.0762793 23.1832 -0.0762793 23.6778 0.228877 23.9829C0.533877 24.2881 1.02864 24.288 1.33372 23.9829L1.62294 23.6937C3.36646 32.4222 11.0744 38.744 20 38.744C28.9682 38.744 36.7072 32.3617 38.4017 23.5683C38.4833 23.1446 38.2061 22.7349 37.7824 22.6533Z" fill="#7BBA26"/>
<path d="M39.7691 16.0184C39.4641 15.7133 38.9694 15.7133 38.6643 16.0185L38.3751 16.3077C36.6316 7.57912 28.9236 1.25732 19.998 1.25732C11.0298 1.25732 3.29074 7.63967 1.59629 16.4331C1.51465 16.8569 1.79191 17.2665 2.21559 17.3481C2.63981 17.4296 3.04895 17.1523 3.13059 16.7288C4.68364 8.66936 11.7775 2.81982 19.998 2.81982C28.0455 2.81982 35.013 8.42553 36.7599 16.2224L36.556 16.0185C36.251 15.7134 35.7564 15.7133 35.4512 16.0184C35.146 16.3235 35.146 16.8181 35.4511 17.1233L37.0577 18.73C37.2041 18.8765 37.4029 18.9589 37.6101 18.9589C37.8173 18.9589 38.016 18.8765 38.1625 18.73L39.7691 17.1233C40.0744 16.8182 40.0744 16.3235 39.7691 16.0184Z" fill="#7BBA26"/>
<path d="M19.9991 33.2048C27.281 33.2048 33.2053 27.2805 33.2053 19.9987C33.2053 12.7168 27.281 6.79248 19.9991 6.79248C12.7173 6.79248 6.79297 12.7168 6.79297 19.9987C6.79297 27.2805 12.7173 33.2048 19.9991 33.2048ZM19.9991 8.35498C26.4195 8.35498 31.6428 13.5783 31.6428 19.9987C31.6428 26.419 26.4195 31.6423 19.9991 31.6423C13.5788 31.6423 8.35547 26.419 8.35547 19.9987C8.35547 13.5783 13.5788 8.35498 19.9991 8.35498Z" fill="#7BBA26"/>
<path d="M20.8248 23.4428C20.9195 23.4806 21.0171 23.4984 21.1132 23.4984C21.4239 23.4984 21.7176 23.3118 21.8394 23.0056L24.0015 17.5697C24.161 17.1688 23.9652 16.7145 23.5643 16.555C23.1636 16.3956 22.7091 16.5912 22.5496 16.9923L20.3875 22.4281C20.2281 22.8291 20.4239 23.2834 20.8248 23.4428Z" fill="#7BBA26"/>
<path d="M25.2382 18.0619H27.032L25.1239 22.4022C24.9502 22.7972 25.1297 23.2581 25.5247 23.4318C25.627 23.4768 25.7337 23.4981 25.8388 23.4981C26.1392 23.498 26.4257 23.3237 26.5543 23.0311L28.944 17.5951C29.0502 17.3535 29.0273 17.0747 28.8831 16.8537C28.7388 16.6327 28.4927 16.4995 28.2288 16.4995H25.2383C24.8069 16.4995 24.457 16.8494 24.457 17.2808C24.457 17.712 24.8067 18.0619 25.2382 18.0619Z" fill="#7BBA26"/>
<path d="M15.2374 21.5102C15.378 21.7482 15.6337 21.8943 15.9102 21.8943H17.842C17.8398 22.1822 17.8376 22.4581 17.8354 22.7107C17.8317 23.1422 18.1785 23.4949 18.6099 23.4986H18.6168C19.0451 23.4986 19.3941 23.1532 19.3979 22.7241C19.3997 22.5197 19.402 22.2295 19.4047 21.8901C19.7981 21.8496 20.1051 21.5172 20.1051 21.113C20.1051 20.7124 19.8036 20.3822 19.4151 20.337C19.4221 19.0654 19.4248 17.7851 19.4088 17.5934C19.367 17.091 19.0602 16.6798 18.627 16.5456C18.1945 16.4118 17.7398 16.5733 17.4103 16.9775C17.1009 17.3569 15.7798 19.7321 15.2262 20.7356C15.0926 20.9777 15.0969 21.2722 15.2374 21.5102ZM17.8572 19.2408C17.856 19.5782 17.8544 19.9496 17.8523 20.3318H17.239C17.4561 19.945 17.6671 19.5722 17.8572 19.2408Z" fill="#7BBA26"/>
<path d="M14.7658 23.541C15.1972 23.5356 15.5425 23.1814 15.5371 22.75C15.5318 22.3219 15.1831 21.9786 14.7562 21.9786C14.7528 21.9786 14.7495 21.9786 14.7461 21.9787C14.3184 21.984 13.869 21.988 13.463 21.9899C13.7441 21.6094 14.1049 21.1107 14.5608 20.4594C14.9204 19.9456 15.1555 19.4572 15.2597 19.0077C15.2853 18.908 15.3066 18.767 15.3068 18.621C15.3085 17.4232 14.3324 16.4487 13.1345 16.4487C12.0989 16.4487 11.2026 17.1856 11.0031 18.2008C10.9199 18.6241 11.1956 19.0348 11.6191 19.118C12.0428 19.2013 12.4531 18.9254 12.5363 18.5019C12.5921 18.2176 12.8438 18.0112 13.1345 18.0112C13.4574 18.0112 13.7224 18.2636 13.743 18.5813L13.7293 18.6883C13.6827 18.8665 13.5663 19.1552 13.2807 19.5633C12.4216 20.7908 11.9091 21.4619 11.6338 21.8223C11.2807 22.2846 11.0863 22.5392 11.2162 22.962C11.2927 23.2105 11.4878 23.4088 11.7389 23.4926C11.8431 23.5273 11.9267 23.5552 12.9936 23.5552C13.4125 23.5551 13.983 23.5509 14.7658 23.541Z" fill="#7BBA26"/>
</g>
<defs>
<clipPath id="clip0_536_700">
<rect width="40" height="40" fill="white"/>
</clipPath>
</defs>
</svg>
