<svg width="116" height="21" viewBox="0 0 116 21" fill="none" xmlns="http://www.w3.org/2000/svg">
<g clip-path="url(#clip0_639_3846)">
<path d="M18.8912 11.326C18.679 11.2851 18.4745 11.4239 18.4337 11.6357C17.6572 15.6654 14.1103 18.5902 9.99999 18.5902C5.97627 18.5902 2.49252 15.7873 1.61905 11.8889L1.721 11.9908C1.79729 12.0671 1.89725 12.1053 1.99721 12.1053C2.09717 12.1053 2.19713 12.0671 2.27338 11.9909C2.42596 11.8383 2.42596 11.591 2.27342 11.4384L1.4701 10.6351C1.39686 10.5618 1.29749 10.5206 1.19389 10.5206C1.0903 10.5206 0.990923 10.5618 0.917681 10.6351L0.114399 11.4384C-0.0381397 11.591 -0.0381396 11.8383 0.114438 11.9909C0.266939 12.1434 0.514321 12.1434 0.66686 11.9908L0.81147 11.8462C1.68323 16.2105 5.53721 19.3714 9.99999 19.3714C14.4841 19.3714 18.3536 16.1802 19.2008 11.7835C19.2417 11.5717 19.103 11.3668 18.8912 11.326V11.326Z" fill="#7E7E7E"/>
<path d="M19.8855 8.00921C19.733 7.85663 19.4857 7.85667 19.3331 8.00925L19.1885 8.15386C18.3168 3.78956 14.4628 0.628662 9.99999 0.628662C5.51588 0.628662 1.64635 3.81983 0.799121 8.21655C0.758301 8.42843 0.896934 8.63323 1.10877 8.67405C1.32088 8.71479 1.52545 8.57616 1.56627 8.3644C2.34279 4.33468 5.88971 1.40991 9.99999 1.40991C14.0237 1.40991 17.5075 4.21276 18.3809 8.1112L18.279 8.00925C18.1265 7.85671 17.8792 7.85667 17.7266 8.00921C17.574 8.16175 17.574 8.40905 17.7265 8.56163L18.5298 9.36499C18.603 9.43827 18.7024 9.47944 18.806 9.47944C18.9096 9.47944 19.009 9.43827 19.0822 9.36499L19.8855 8.56163C20.0382 8.40909 20.0382 8.16175 19.8855 8.00921V8.00921Z" fill="#7E7E7E"/>
<path d="M9.99957 16.6031C13.6405 16.6031 16.6027 13.641 16.6027 10.0001C16.6027 6.35912 13.6405 3.39697 9.99957 3.39697C6.35863 3.39697 3.39648 6.35912 3.39648 10.0001C3.39648 13.641 6.35863 16.6031 9.99957 16.6031ZM9.99957 4.17822C13.2098 4.17822 15.8214 6.78986 15.8214 10.0001C15.8214 13.2103 13.2098 15.8219 9.99957 15.8219C6.78938 15.8219 4.17773 13.2103 4.17773 10.0001C4.17773 6.78986 6.78938 4.17822 9.99957 4.17822Z" fill="#7E7E7E"/>
<path d="M10.4119 11.7219C10.4593 11.7408 10.5081 11.7497 10.5561 11.7497C10.7114 11.7497 10.8583 11.6564 10.9192 11.5033L12.0003 8.78533C12.08 8.58486 11.9821 8.35771 11.7817 8.27799C11.5813 8.1983 11.3541 8.29611 11.2743 8.49662L10.1933 11.2146C10.1136 11.415 10.2114 11.6422 10.4119 11.7219Z" fill="#7E7E7E"/>
<path d="M12.6196 9.03166H13.5165L12.5624 11.2018C12.4756 11.3993 12.5653 11.6298 12.7628 11.7166C12.814 11.7391 12.8673 11.7498 12.9199 11.7498C13.0701 11.7497 13.2133 11.6626 13.2776 11.5163L14.4725 8.7983C14.5256 8.67748 14.5141 8.53807 14.442 8.4276C14.3699 8.31709 14.2469 8.25049 14.1149 8.25049H12.6196C12.4039 8.25049 12.229 8.42541 12.229 8.64111C12.229 8.85674 12.4038 9.03166 12.6196 9.03166V9.03166Z" fill="#7E7E7E"/>
<path d="M7.6192 10.7553C7.68947 10.8744 7.81736 10.9474 7.95556 10.9474H8.9215C8.92041 11.0914 8.91927 11.2293 8.91818 11.3556C8.91635 11.5713 9.08974 11.7477 9.30545 11.7496H9.30888C9.52302 11.7496 9.69756 11.5769 9.69943 11.3623C9.70033 11.2601 9.7015 11.115 9.70283 10.9453C9.89955 10.925 10.053 10.7588 10.053 10.5568C10.053 10.3564 9.90228 10.1914 9.70803 10.1687C9.71154 9.53292 9.71287 8.89281 9.7049 8.79695C9.684 8.54574 9.53056 8.34015 9.314 8.27304C9.09775 8.20617 8.87037 8.28687 8.70564 8.48898C8.55095 8.67871 7.89041 9.86628 7.61357 10.368C7.54677 10.4891 7.54892 10.6363 7.6192 10.7553V10.7553ZM8.92908 9.62066C8.92849 9.78937 8.92767 9.97503 8.92662 10.1661H8.61998C8.72853 9.97273 8.83404 9.78636 8.92908 9.62066V9.62066Z" fill="#7E7E7E"/>
<path d="M7.3829 11.7699C7.5986 11.7672 7.77126 11.5901 7.76856 11.3744C7.76591 11.1604 7.59153 10.9887 7.37809 10.9887C7.37641 10.9887 7.37474 10.9887 7.37306 10.9887C7.15919 10.9914 6.9345 10.9934 6.73149 10.9943C6.87204 10.8041 7.05247 10.5547 7.2804 10.2291C7.4602 9.9722 7.57774 9.72798 7.62985 9.50325C7.64266 9.45341 7.65329 9.3829 7.65341 9.30989C7.65427 8.71098 7.16618 8.22375 6.56728 8.22375C6.04946 8.22375 5.6013 8.59219 5.50153 9.09977C5.45997 9.31145 5.59782 9.51677 5.80954 9.55837C6.02138 9.60005 6.22657 9.46208 6.26814 9.25036C6.29606 9.10817 6.42189 9.00501 6.56728 9.00501C6.72872 9.00501 6.86122 9.13118 6.87149 9.29005L6.86466 9.34352C6.84134 9.43262 6.78317 9.577 6.64036 9.78106C6.21079 10.3948 5.95454 10.7303 5.81689 10.9106C5.64036 11.1417 5.54314 11.269 5.6081 11.4804C5.64634 11.6047 5.74392 11.7038 5.86943 11.7457C5.92157 11.7631 5.96333 11.777 6.49681 11.777C6.70626 11.7769 6.99149 11.7748 7.3829 11.7699V11.7699Z" fill="#7E7E7E"/>
</g>
<path d="M30.714 13.978C31.8993 13.026 32.828 12.2467 33.5 11.64C34.172 11.024 34.7367 10.3847 35.194 9.722C35.6607 9.05 35.894 8.392 35.894 7.748C35.894 7.14133 35.7447 6.66533 35.446 6.32C35.1567 5.96533 34.6853 5.788 34.032 5.788C33.3973 5.788 32.9027 5.98867 32.548 6.39C32.2027 6.782 32.016 7.30933 31.988 7.972H30.756C30.7933 6.92667 31.1107 6.11933 31.708 5.55C32.3053 4.98067 33.0753 4.696 34.018 4.696C34.9793 4.696 35.74 4.962 36.3 5.494C36.8693 6.026 37.154 6.75867 37.154 7.692C37.154 8.46667 36.9207 9.22267 36.454 9.96C35.9967 10.688 35.474 11.332 34.886 11.892C34.298 12.4427 33.5467 13.0867 32.632 13.824H37.448V14.888H30.714V13.978ZM38.6127 12.746V11.78L43.5267 4.976H45.0527V11.64H46.4527V12.746H45.0527V15H43.7927V12.746H38.6127ZM43.8487 6.306L40.0827 11.64H43.8487V6.306ZM52.6954 1.812L48.8594 17.38H47.5994L51.4214 1.812H52.6954ZM60.6136 5.872L56.7216 15H55.4336L59.3816 5.998H53.9776V4.906H60.6136V5.872ZM69.0626 15.098C68.4186 15.098 67.84 14.986 67.3266 14.762C66.8226 14.5287 66.426 14.2113 66.1366 13.81C65.8473 13.3993 65.698 12.928 65.6886 12.396H67.0466C67.0933 12.8533 67.28 13.2407 67.6066 13.558C67.9426 13.866 68.428 14.02 69.0626 14.02C69.6693 14.02 70.1453 13.8707 70.4906 13.572C70.8453 13.264 71.0226 12.872 71.0226 12.396C71.0226 12.0227 70.92 11.7193 70.7146 11.486C70.5093 11.2527 70.2526 11.0753 69.9446 10.954C69.6366 10.8327 69.2213 10.702 68.6986 10.562C68.0546 10.394 67.5366 10.226 67.1446 10.058C66.762 9.89 66.4306 9.62867 66.1506 9.274C65.88 8.91 65.7446 8.42467 65.7446 7.818C65.7446 7.286 65.88 6.81467 66.1506 6.404C66.4213 5.99333 66.7993 5.676 67.2846 5.452C67.7793 5.228 68.344 5.116 68.9786 5.116C69.8933 5.116 70.64 5.34467 71.2186 5.802C71.8066 6.25933 72.138 6.866 72.2126 7.622H70.8126C70.766 7.24867 70.57 6.922 70.2246 6.642C69.8793 6.35267 69.422 6.208 68.8526 6.208C68.3206 6.208 67.8866 6.348 67.5506 6.628C67.2146 6.89867 67.0466 7.28133 67.0466 7.776C67.0466 8.13067 67.1446 8.42 67.3406 8.644C67.546 8.868 67.7933 9.04067 68.0826 9.162C68.3813 9.274 68.7966 9.40467 69.3286 9.554C69.9726 9.73133 70.4906 9.90867 70.8826 10.086C71.2746 10.254 71.6106 10.52 71.8906 10.884C72.1706 11.2387 72.3106 11.724 72.3106 12.34C72.3106 12.816 72.1846 13.264 71.9326 13.684C71.6806 14.104 71.3073 14.4447 70.8126 14.706C70.318 14.9673 69.7346 15.098 69.0626 15.098ZM81.1854 10.87C81.1854 11.1127 81.1714 11.3693 81.1434 11.64H75.0114C75.0581 12.396 75.3148 12.9887 75.7814 13.418C76.2574 13.838 76.8314 14.048 77.5034 14.048C78.0541 14.048 78.5114 13.922 78.8754 13.67C79.2488 13.4087 79.5101 13.0633 79.6594 12.634H81.0314C80.8261 13.3713 80.4154 13.9733 79.7994 14.44C79.1834 14.8973 78.4181 15.126 77.5034 15.126C76.7754 15.126 76.1221 14.9627 75.5434 14.636C74.9741 14.3093 74.5261 13.8473 74.1994 13.25C73.8728 12.6433 73.7094 11.9433 73.7094 11.15C73.7094 10.3567 73.8681 9.66133 74.1854 9.064C74.5028 8.46667 74.9461 8.00933 75.5154 7.692C76.0941 7.36533 76.7568 7.202 77.5034 7.202C78.2314 7.202 78.8754 7.36067 79.4354 7.678C79.9954 7.99533 80.4248 8.434 80.7234 8.994C81.0314 9.54467 81.1854 10.17 81.1854 10.87ZM79.8694 10.604C79.8694 10.1187 79.7621 9.70333 79.5474 9.358C79.3328 9.00333 79.0388 8.73733 78.6654 8.56C78.3014 8.37333 77.8954 8.28 77.4474 8.28C76.8034 8.28 76.2528 8.48533 75.7954 8.896C75.3474 9.30667 75.0908 9.876 75.0254 10.604H79.8694ZM84.1411 8.574C84.3651 8.13533 84.6824 7.79467 85.0931 7.552C85.5131 7.30933 86.0217 7.188 86.6191 7.188V8.504H86.2831C84.8551 8.504 84.1411 9.27867 84.1411 10.828V15H82.8671V7.328H84.1411V8.574ZM90.9457 13.824L93.3257 7.328H94.6837L91.6737 15H90.1897L87.1797 7.328H88.5517L90.9457 13.824ZM96.5954 6.082C96.3527 6.082 96.1474 5.998 95.9794 5.83C95.8114 5.662 95.7274 5.45667 95.7274 5.214C95.7274 4.97133 95.8114 4.766 95.9794 4.598C96.1474 4.43 96.3527 4.346 96.5954 4.346C96.8287 4.346 97.0247 4.43 97.1834 4.598C97.3514 4.766 97.4354 4.97133 97.4354 5.214C97.4354 5.45667 97.3514 5.662 97.1834 5.83C97.0247 5.998 96.8287 6.082 96.5954 6.082ZM97.2114 7.328V15H95.9374V7.328H97.2114ZM98.9067 11.15C98.9067 10.3567 99.0654 9.666 99.3827 9.078C99.7 8.48067 100.139 8.01867 100.699 7.692C101.268 7.36533 101.917 7.202 102.645 7.202C103.587 7.202 104.362 7.43067 104.969 7.888C105.585 8.34533 105.991 8.98 106.187 9.792H104.815C104.684 9.32533 104.427 8.95667 104.045 8.686C103.671 8.41533 103.205 8.28 102.645 8.28C101.917 8.28 101.329 8.532 100.881 9.036C100.433 9.53067 100.209 10.2353 100.209 11.15C100.209 12.074 100.433 12.788 100.881 13.292C101.329 13.796 101.917 14.048 102.645 14.048C103.205 14.048 103.671 13.9173 104.045 13.656C104.418 13.3947 104.675 13.0213 104.815 12.536H106.187C105.981 13.32 105.571 13.95 104.955 14.426C104.339 14.8927 103.569 15.126 102.645 15.126C101.917 15.126 101.268 14.9627 100.699 14.636C100.139 14.3093 99.7 13.8473 99.3827 13.25C99.0654 12.6527 98.9067 11.9527 98.9067 11.15ZM114.887 10.87C114.887 11.1127 114.873 11.3693 114.845 11.64H108.713C108.759 12.396 109.016 12.9887 109.483 13.418C109.959 13.838 110.533 14.048 111.205 14.048C111.755 14.048 112.213 13.922 112.577 13.67C112.95 13.4087 113.211 13.0633 113.361 12.634H114.733C114.527 13.3713 114.117 13.9733 113.501 14.44C112.885 14.8973 112.119 15.126 111.205 15.126C110.477 15.126 109.823 14.9627 109.245 14.636C108.675 14.3093 108.227 13.8473 107.901 13.25C107.574 12.6433 107.411 11.9433 107.411 11.15C107.411 10.3567 107.569 9.66133 107.887 9.064C108.204 8.46667 108.647 8.00933 109.217 7.692C109.795 7.36533 110.458 7.202 111.205 7.202C111.933 7.202 112.577 7.36067 113.137 7.678C113.697 7.99533 114.126 8.434 114.425 8.994C114.733 9.54467 114.887 10.17 114.887 10.87ZM113.571 10.604C113.571 10.1187 113.463 9.70333 113.249 9.358C113.034 9.00333 112.74 8.73733 112.367 8.56C112.003 8.37333 111.597 8.28 111.149 8.28C110.505 8.28 109.954 8.48533 109.497 8.896C109.049 9.30667 108.792 9.876 108.727 10.604H113.571Z" fill="#7E7E7E"/>
<defs>
<clipPath id="clip0_639_3846">
<rect width="20" height="20" fill="white"/>
</clipPath>
</defs>
</svg>
