<svg width="175" height="21" viewBox="0 0 175 21" fill="none" xmlns="http://www.w3.org/2000/svg">
<path d="M30.532 6.04V4.878H33.164V15H31.876V6.04H30.532ZM41.8064 5.984H36.8924V9.176C37.107 8.87733 37.4244 8.63467 37.8444 8.448C38.2644 8.252 38.717 8.154 39.2024 8.154C39.977 8.154 40.607 8.31733 41.0924 8.644C41.5777 8.96133 41.923 9.37667 42.1284 9.89C42.343 10.394 42.4504 10.9307 42.4504 11.5C42.4504 12.172 42.3244 12.774 42.0724 13.306C41.8204 13.838 41.433 14.258 40.9104 14.566C40.397 14.874 39.7577 15.028 38.9924 15.028C38.0124 15.028 37.219 14.776 36.6124 14.272C36.0057 13.768 35.637 13.096 35.5064 12.256H36.7524C36.8737 12.788 37.1304 13.2033 37.5224 13.502C37.9144 13.8007 38.409 13.95 39.0064 13.95C39.7437 13.95 40.299 13.7307 40.6724 13.292C41.0457 12.844 41.2324 12.256 41.2324 11.528C41.2324 10.8 41.0457 10.24 40.6724 9.848C40.299 9.44667 39.7484 9.246 39.0204 9.246C38.5257 9.246 38.0917 9.36733 37.7184 9.61C37.3544 9.84333 37.0884 10.1653 36.9204 10.576H35.7164V4.864H41.8064V5.984ZM51.1238 5.242C52.1878 5.242 53.1071 5.44267 53.8818 5.844C54.6658 6.236 55.2631 6.80067 55.6738 7.538C56.0938 8.27533 56.3038 9.14333 56.3038 10.142C56.3038 11.1407 56.0938 12.0087 55.6738 12.746C55.2631 13.474 54.6658 14.034 53.8818 14.426C53.1071 14.8087 52.1878 15 51.1238 15H48.0858V5.242H51.1238ZM51.1238 13.95C52.3838 13.95 53.3451 13.6187 54.0078 12.956C54.6705 12.284 55.0018 11.346 55.0018 10.142C55.0018 8.92867 54.6658 7.98133 53.9938 7.3C53.3311 6.61867 52.3745 6.278 51.1238 6.278H49.3598V13.95H51.1238ZM57.5083 11.136C57.5083 10.352 57.6669 9.666 57.9843 9.078C58.3016 8.48067 58.7356 8.01867 59.2863 7.692C59.8463 7.36533 60.4669 7.202 61.1483 7.202C61.8203 7.202 62.4036 7.34667 62.8983 7.636C63.3929 7.92533 63.7616 8.28933 64.0043 8.728V7.328H65.2923V15H64.0043V13.572C63.7523 14.02 63.3743 14.3933 62.8703 14.692C62.3756 14.9813 61.7969 15.126 61.1343 15.126C60.4529 15.126 59.8369 14.958 59.2863 14.622C58.7356 14.286 58.3016 13.8147 57.9843 13.208C57.6669 12.6013 57.5083 11.9107 57.5083 11.136ZM64.0043 11.15C64.0043 10.5713 63.8876 10.0673 63.6543 9.638C63.4209 9.20867 63.1036 8.882 62.7023 8.658C62.3103 8.42467 61.8763 8.308 61.4003 8.308C60.9243 8.308 60.4903 8.42 60.0983 8.644C59.7063 8.868 59.3936 9.19467 59.1603 9.624C58.9269 10.0533 58.8103 10.5573 58.8103 11.136C58.8103 11.724 58.9269 12.2373 59.1603 12.676C59.3936 13.1053 59.7063 13.4367 60.0983 13.67C60.4903 13.894 60.9243 14.006 61.4003 14.006C61.8763 14.006 62.3103 13.894 62.7023 13.67C63.1036 13.4367 63.4209 13.1053 63.6543 12.676C63.8876 12.2373 64.0043 11.7287 64.0043 11.15ZM74.0532 7.328L69.4332 18.612H68.1172L69.6292 14.916L66.5352 7.328H67.9492L70.3572 13.544L72.7372 7.328H74.0532ZM78.0499 15.126C77.4619 15.126 76.9345 15.028 76.4679 14.832C76.0012 14.6267 75.6325 14.3467 75.3619 13.992C75.0912 13.628 74.9419 13.2127 74.9139 12.746H76.2299C76.2672 13.1287 76.4445 13.4413 76.7619 13.684C77.0885 13.9267 77.5132 14.048 78.0359 14.048C78.5212 14.048 78.9039 13.9407 79.1839 13.726C79.4639 13.5113 79.6039 13.2407 79.6039 12.914C79.6039 12.578 79.4545 12.3307 79.1559 12.172C78.8572 12.004 78.3952 11.8407 77.7699 11.682C77.2005 11.5327 76.7339 11.3833 76.3699 11.234C76.0152 11.0753 75.7072 10.8467 75.4459 10.548C75.1939 10.24 75.0679 9.83867 75.0679 9.344C75.0679 8.952 75.1845 8.59267 75.4179 8.266C75.6512 7.93933 75.9825 7.68267 76.4119 7.496C76.8412 7.3 77.3312 7.202 77.8819 7.202C78.7312 7.202 79.4172 7.41667 79.9399 7.846C80.4625 8.27533 80.7425 8.86333 80.7799 9.61H79.5059C79.4779 9.20867 79.3145 8.88667 79.0159 8.644C78.7265 8.40133 78.3345 8.28 77.8399 8.28C77.3825 8.28 77.0185 8.378 76.7479 8.574C76.4772 8.77 76.3419 9.02667 76.3419 9.344C76.3419 9.596 76.4212 9.806 76.5799 9.974C76.7479 10.1327 76.9532 10.2633 77.1959 10.366C77.4479 10.4593 77.7932 10.5667 78.2319 10.688C78.7825 10.8373 79.2305 10.9867 79.5759 11.136C79.9212 11.276 80.2152 11.4907 80.4579 11.78C80.7099 12.0693 80.8405 12.4473 80.8499 12.914C80.8499 13.334 80.7332 13.712 80.4999 14.048C80.2665 14.384 79.9352 14.65 79.5059 14.846C79.0859 15.0327 78.6005 15.126 78.0499 15.126ZM91.5187 15L89.1947 11.01H87.6547V15H86.3807V5.242H89.5307C90.2681 5.242 90.8887 5.368 91.3927 5.62C91.9061 5.872 92.2887 6.21267 92.5407 6.642C92.7927 7.07133 92.9187 7.56133 92.9187 8.112C92.9187 8.784 92.7227 9.37667 92.3307 9.89C91.9481 10.4033 91.3694 10.744 90.5947 10.912L93.0447 15H91.5187ZM87.6547 9.988H89.5307C90.2214 9.988 90.7394 9.82 91.0847 9.484C91.4301 9.13867 91.6027 8.68133 91.6027 8.112C91.6027 7.53333 91.4301 7.08533 91.0847 6.768C90.7487 6.45067 90.2307 6.292 89.5307 6.292H87.6547V9.988ZM101.898 10.87C101.898 11.1127 101.884 11.3693 101.856 11.64H95.7243C95.771 12.396 96.0276 12.9887 96.4943 13.418C96.9703 13.838 97.5443 14.048 98.2163 14.048C98.767 14.048 99.2243 13.922 99.5883 13.67C99.9616 13.4087 100.223 13.0633 100.372 12.634H101.744C101.539 13.3713 101.128 13.9733 100.512 14.44C99.8963 14.8973 99.131 15.126 98.2163 15.126C97.4883 15.126 96.835 14.9627 96.2563 14.636C95.687 14.3093 95.239 13.8473 94.9123 13.25C94.5856 12.6433 94.4223 11.9433 94.4223 11.15C94.4223 10.3567 94.581 9.66133 94.8983 9.064C95.2156 8.46667 95.659 8.00933 96.2283 7.692C96.807 7.36533 97.4696 7.202 98.2163 7.202C98.9443 7.202 99.5883 7.36067 100.148 7.678C100.708 7.99533 101.138 8.434 101.436 8.994C101.744 9.54467 101.898 10.17 101.898 10.87ZM100.582 10.604C100.582 10.1187 100.475 9.70333 100.26 9.358C100.046 9.00333 99.7516 8.73733 99.3783 8.56C99.0143 8.37333 98.6083 8.28 98.1603 8.28C97.5163 8.28 96.9656 8.48533 96.5083 8.896C96.0603 9.30667 95.8036 9.876 95.7383 10.604H100.582ZM105.134 8.378V12.9C105.134 13.2733 105.213 13.5393 105.372 13.698C105.531 13.8473 105.806 13.922 106.198 13.922H107.136V15H105.988C105.279 15 104.747 14.8367 104.392 14.51C104.037 14.1833 103.86 13.6467 103.86 12.9V8.378H102.866V7.328H103.86V5.396H105.134V7.328H107.136V8.378H105.134ZM115.484 7.328V15H114.21V13.866C113.967 14.258 113.626 14.566 113.188 14.79C112.758 15.0047 112.282 15.112 111.76 15.112C111.162 15.112 110.626 14.9907 110.15 14.748C109.674 14.496 109.296 14.1227 109.016 13.628C108.745 13.1333 108.61 12.5313 108.61 11.822V7.328H109.87V11.654C109.87 12.41 110.061 12.9933 110.444 13.404C110.826 13.8053 111.349 14.006 112.012 14.006C112.693 14.006 113.23 13.796 113.622 13.376C114.014 12.956 114.21 12.3447 114.21 11.542V7.328H115.484ZM118.909 8.574C119.133 8.13533 119.45 7.79467 119.861 7.552C120.281 7.30933 120.789 7.188 121.387 7.188V8.504H121.051C119.623 8.504 118.909 9.27867 118.909 10.828V15H117.635V7.328H118.909V8.574ZM126.595 7.188C127.529 7.188 128.285 7.47267 128.863 8.042C129.442 8.602 129.731 9.414 129.731 10.478V15H128.471V10.66C128.471 9.89467 128.28 9.31133 127.897 8.91C127.515 8.49933 126.992 8.294 126.329 8.294C125.657 8.294 125.121 8.504 124.719 8.924C124.327 9.344 124.131 9.95533 124.131 10.758V15H122.857V7.328H124.131V8.42C124.383 8.028 124.724 7.72467 125.153 7.51C125.592 7.29533 126.073 7.188 126.595 7.188ZM142.069 8.098C142.069 8.91 141.789 9.58667 141.229 10.128C140.678 10.66 139.833 10.926 138.695 10.926H136.819V15H135.545V5.242H138.695C139.796 5.242 140.631 5.508 141.201 6.04C141.779 6.572 142.069 7.258 142.069 8.098ZM138.695 9.876C139.404 9.876 139.927 9.722 140.263 9.414C140.599 9.106 140.767 8.66733 140.767 8.098C140.767 6.894 140.076 6.292 138.695 6.292H136.819V9.876H138.695ZM146.998 15.126C146.28 15.126 145.626 14.9627 145.038 14.636C144.46 14.3093 144.002 13.8473 143.666 13.25C143.34 12.6433 143.176 11.9433 143.176 11.15C143.176 10.366 143.344 9.67533 143.68 9.078C144.026 8.47133 144.492 8.00933 145.08 7.692C145.668 7.36533 146.326 7.202 147.054 7.202C147.782 7.202 148.44 7.36533 149.028 7.692C149.616 8.00933 150.078 8.46667 150.414 9.064C150.76 9.66133 150.932 10.3567 150.932 11.15C150.932 11.9433 150.755 12.6433 150.4 13.25C150.055 13.8473 149.584 14.3093 148.986 14.636C148.389 14.9627 147.726 15.126 146.998 15.126ZM146.998 14.006C147.456 14.006 147.885 13.8987 148.286 13.684C148.688 13.4693 149.01 13.1473 149.252 12.718C149.504 12.2887 149.63 11.766 149.63 11.15C149.63 10.534 149.509 10.0113 149.266 9.582C149.024 9.15267 148.706 8.83533 148.314 8.63C147.922 8.41533 147.498 8.308 147.04 8.308C146.574 8.308 146.144 8.41533 145.752 8.63C145.37 8.83533 145.062 9.15267 144.828 9.582C144.595 10.0113 144.478 10.534 144.478 11.15C144.478 11.7753 144.59 12.3027 144.814 12.732C145.048 13.1613 145.356 13.4833 145.738 13.698C146.121 13.9033 146.541 14.006 146.998 14.006ZM153.881 4.64V15H152.607V4.64H153.881ZM156.711 6.082C156.468 6.082 156.263 5.998 156.095 5.83C155.927 5.662 155.843 5.45667 155.843 5.214C155.843 4.97133 155.927 4.766 156.095 4.598C156.263 4.43 156.468 4.346 156.711 4.346C156.944 4.346 157.14 4.43 157.299 4.598C157.467 4.766 157.551 4.97133 157.551 5.214C157.551 5.45667 157.467 5.662 157.299 5.83C157.14 5.998 156.944 6.082 156.711 6.082ZM157.327 7.328V15H156.053V7.328H157.327ZM159.022 11.15C159.022 10.3567 159.181 9.666 159.498 9.078C159.815 8.48067 160.254 8.01867 160.814 7.692C161.383 7.36533 162.032 7.202 162.76 7.202C163.703 7.202 164.477 7.43067 165.084 7.888C165.7 8.34533 166.106 8.98 166.302 9.792H164.93C164.799 9.32533 164.543 8.95667 164.16 8.686C163.787 8.41533 163.32 8.28 162.76 8.28C162.032 8.28 161.444 8.532 160.996 9.036C160.548 9.53067 160.324 10.2353 160.324 11.15C160.324 12.074 160.548 12.788 160.996 13.292C161.444 13.796 162.032 14.048 162.76 14.048C163.32 14.048 163.787 13.9173 164.16 13.656C164.533 13.3947 164.79 13.0213 164.93 12.536H166.302C166.097 13.32 165.686 13.95 165.07 14.426C164.454 14.8927 163.684 15.126 162.76 15.126C162.032 15.126 161.383 14.9627 160.814 14.636C160.254 14.3093 159.815 13.8473 159.498 13.25C159.181 12.6527 159.022 11.9527 159.022 11.15ZM174.61 7.328L169.99 18.612H168.674L170.186 14.916L167.092 7.328H168.506L170.914 13.544L173.294 7.328H174.61Z" fill="#7E7E7E"/>
<g clip-path="url(#clip0_639_3868)">
<path d="M10.0002 19.2188C5.86301 19.2188 2.25403 16.4243 1.22331 12.4229C1.18028 12.256 1.28114 12.0854 1.44837 12.0422C1.61393 12.0004 1.78589 12.1 1.82892 12.2673C2.78808 15.9922 6.14835 18.5938 10.0002 18.5938C14.6526 18.5938 18.4377 14.8087 18.4377 10.1564C18.4377 9.98349 18.5773 9.84387 18.7502 9.84387C18.9229 9.84387 19.0627 9.98349 19.0627 10.1564C19.0627 15.1531 14.997 19.2188 10.0002 19.2188Z" fill="#7E7E7E"/>
<path d="M1.25049 10.1564C1.07761 10.1564 0.937988 10.0167 0.937988 9.84393C0.937988 4.84702 5.00351 0.781494 10.0004 0.781494C14.1375 0.781494 17.7465 3.57582 18.7772 7.57725C18.8202 7.74418 18.7194 7.91477 18.5521 7.95796C18.3875 8.00144 18.2149 7.90013 18.1716 7.73289C17.2124 4.00794 13.8522 1.40649 10.0004 1.40649C5.3479 1.40649 1.56298 5.19141 1.56298 9.84393C1.56298 10.0167 1.42321 10.1564 1.25049 10.1564Z" fill="#7E7E7E"/>
<path d="M1.25011 10.1564C1.17001 10.1564 1.09005 10.1257 1.02917 10.0647L0.0916672 9.12716C-0.0305557 9.00509 -0.0305557 8.80749 0.0916672 8.68542C0.213737 8.56319 0.411339 8.56319 0.533409 8.68542L1.47091 9.62292C1.59313 9.74499 1.59313 9.94259 1.47091 10.0647C1.41003 10.1257 1.33007 10.1564 1.25011 10.1564Z" fill="#7E7E7E"/>
<path d="M1.25011 10.1564C1.17001 10.1564 1.09005 10.1257 1.02917 10.0647C0.906944 9.94259 0.906944 9.74499 1.02917 9.62292L1.96667 8.68542C2.08874 8.56319 2.28634 8.56319 2.40841 8.68542C2.53063 8.80749 2.53063 9.00509 2.40841 9.12716L1.47091 10.0647C1.41003 10.1257 1.33007 10.1564 1.25011 10.1564Z" fill="#7E7E7E"/>
<path d="M19.6876 11.0939C19.6075 11.0939 19.5275 11.0632 19.4667 11.0022L18.5292 10.0647C18.4069 9.94259 18.4069 9.74499 18.5292 9.62292C18.6512 9.50069 18.8488 9.50069 18.9709 9.62292L19.9084 10.5604C20.0306 10.6825 20.0306 10.8801 19.9084 11.0022C19.8475 11.0632 19.7676 11.0939 19.6876 11.0939Z" fill="#7E7E7E"/>
<path d="M17.8121 11.0939C17.732 11.0939 17.6521 11.0632 17.5912 11.0022C17.469 10.8801 17.469 10.6825 17.5912 10.5604L18.5287 9.62292C18.6507 9.50069 18.8484 9.50069 18.9704 9.62292C19.0926 9.74499 19.0926 9.94259 18.9704 10.0647L18.0329 11.0022C17.972 11.0632 17.8921 11.0939 17.8121 11.0939Z" fill="#7E7E7E"/>
<path d="M4.37402 17.1703C4.20129 17.1703 4.06152 17.0306 4.06152 16.8578V8.9032C4.06152 8.73032 4.20129 8.5907 4.37402 8.5907C4.5469 8.5907 4.68652 8.73032 4.68652 8.9032V16.8578C4.68652 17.0306 4.5469 17.1703 4.37402 17.1703Z" fill="#7E7E7E"/>
<path d="M15.6255 17.171C15.4526 17.171 15.313 17.0313 15.313 16.8585V8.9032C15.313 8.73032 15.4526 8.5907 15.6255 8.5907C15.7982 8.5907 15.938 8.73032 15.938 8.9032V16.8585C15.938 17.0313 15.7982 17.171 15.6255 17.171Z" fill="#7E7E7E"/>
<path d="M15.6253 9.21569H4.37402C4.20129 9.21569 4.06152 9.07608 4.06152 8.90319C4.06152 8.73031 4.20129 8.5907 4.37402 8.5907H15.6253C15.798 8.5907 15.9378 8.73031 15.9378 8.90319C15.9378 9.07608 15.798 9.21569 15.6253 9.21569Z" fill="#7E7E7E"/>
<path d="M4.37434 9.21571C4.31971 9.21571 4.26402 9.20137 4.21381 9.171C4.06565 9.08235 4.01789 8.89039 4.10655 8.74223L5.04404 7.17912C5.13255 7.03142 5.32435 6.9832 5.47282 7.072C5.62098 7.16066 5.66874 7.35261 5.58008 7.50078L4.64259 9.06389C4.58414 9.16169 4.48069 9.21571 4.37434 9.21571Z" fill="#7E7E7E"/>
<path d="M15.6263 9.21577C15.5199 9.21577 15.4165 9.16176 15.358 9.06425L14.4205 7.50114C14.3319 7.35298 14.3796 7.16102 14.5278 7.07237C14.6759 6.98356 14.8677 7.03178 14.9566 7.17949L15.8941 8.7426C15.9827 8.89076 15.9349 9.08272 15.7868 9.17137C15.7363 9.20143 15.6809 9.21577 15.6263 9.21577Z" fill="#7E7E7E"/>
<path d="M14.6878 7.65258H5.31152C5.13879 7.65258 4.99902 7.51281 4.99902 7.34008C4.99902 7.1672 5.13879 7.02759 5.31152 7.02759H14.6878C14.8605 7.02759 15.0003 7.1672 15.0003 7.34008C15.0003 7.51281 14.8605 7.65258 14.6878 7.65258Z" fill="#7E7E7E"/>
<path d="M8.74974 9.21571C8.72975 9.21571 8.70884 9.21388 8.68824 9.20945C8.51918 9.17573 8.40916 9.01109 8.44319 8.84172L8.75569 7.27845C8.78926 7.10954 8.95237 6.99815 9.12358 7.03355C9.29265 7.06727 9.40266 7.23191 9.36863 7.40128L9.05613 8.9644C9.02638 9.11317 8.89576 9.21571 8.74974 9.21571Z" fill="#7E7E7E"/>
<path d="M11.2495 9.21574C11.1037 9.21574 10.973 9.1132 10.9436 8.96443L10.6311 7.40132C10.5974 7.23194 10.7071 7.06761 10.8761 7.03358C11.0477 6.99849 11.2102 7.10957 11.244 7.27848L11.5565 8.84175C11.5903 9.01112 11.4805 9.17546 11.3115 9.20948C11.2906 9.21391 11.2697 9.21574 11.2495 9.21574Z" fill="#7E7E7E"/>
<path d="M8.74902 11.0907C8.57629 11.0907 8.43652 10.9511 8.43652 10.7782V8.9032C8.43652 8.73032 8.57629 8.5907 8.74902 8.5907C8.92191 8.5907 9.06152 8.73032 9.06152 8.9032V10.7782C9.06152 10.9511 8.92191 11.0907 8.74902 11.0907Z" fill="#7E7E7E"/>
<path d="M11.25 11.0907C11.0771 11.0907 10.9375 10.9511 10.9375 10.7782V8.9032C10.9375 8.73032 11.0771 8.5907 11.25 8.5907C11.4227 8.5907 11.5625 8.73032 11.5625 8.9032V10.7782C11.5625 10.9511 11.4227 11.0907 11.25 11.0907Z" fill="#7E7E7E"/>
<path d="M11.2504 11.0907C11.2254 11.0907 11.1997 11.0877 11.1744 11.0814L9.92439 10.7689C9.75685 10.727 9.65508 10.5573 9.69689 10.3901C9.73839 10.2224 9.90776 10.1201 10.0756 10.1625L11.3256 10.4751C11.4932 10.517 11.5951 10.6867 11.5531 10.8539C11.5176 10.9964 11.3903 11.0907 11.2504 11.0907Z" fill="#7E7E7E"/>
<path d="M8.7493 11.0907C8.60938 11.0907 8.48212 10.996 8.44657 10.8539C8.4043 10.6867 8.50623 10.517 8.67407 10.475L9.92468 10.1625C10.0916 10.1198 10.2616 10.2223 10.3034 10.39C10.3457 10.5573 10.2437 10.7269 10.0759 10.7689L8.82529 11.0814C8.79996 11.0877 8.77432 11.0907 8.7493 11.0907Z" fill="#7E7E7E"/>
<path d="M12.8141 14.8413H7.18652C7.01379 14.8413 6.87402 14.7017 6.87402 14.5288C6.87402 14.3561 7.01379 14.2163 7.18652 14.2163H12.8141C12.9868 14.2163 13.1266 14.3561 13.1266 14.5288C13.1266 14.7017 12.9868 14.8413 12.8141 14.8413Z" fill="#7E7E7E"/>
<path d="M12.8141 13.5939H7.18652C7.01379 13.5939 6.87402 13.4541 6.87402 13.2814C6.87402 13.1085 7.01379 12.9689 7.18652 12.9689H12.8141C12.9868 12.9689 13.1266 13.1085 13.1266 13.2814C13.1266 13.4541 12.9868 13.5939 12.8141 13.5939Z" fill="#7E7E7E"/>
<path d="M11.2504 16.0919H8.74902C8.57629 16.0919 8.43652 15.9523 8.43652 15.7794C8.43652 15.6067 8.57629 15.4669 8.74902 15.4669H11.2504C11.4231 15.4669 11.5629 15.6067 11.5629 15.7794C11.5629 15.9523 11.4231 16.0919 11.2504 16.0919Z" fill="#7E7E7E"/>
</g>
<defs>
<clipPath id="clip0_639_3868">
<rect width="20" height="20" fill="white"/>
</clipPath>
</defs>
</svg>
