<svg width="118" height="21" viewBox="0 0 118 21" fill="none" xmlns="http://www.w3.org/2000/svg">
<path d="M36.594 5.242V6.278H32.352V9.568H35.796V10.604H32.352V15H31.078V5.242H36.594ZM37.6567 11.136C37.6567 10.352 37.8154 9.666 38.1327 9.078C38.45 8.48067 38.884 8.01867 39.4347 7.692C39.9947 7.36533 40.6154 7.202 41.2967 7.202C41.9687 7.202 42.552 7.34667 43.0467 7.636C43.5414 7.92533 43.91 8.28933 44.1527 8.728V7.328H45.4407V15H44.1527V13.572C43.9007 14.02 43.5227 14.3933 43.0187 14.692C42.524 14.9813 41.9454 15.126 41.2827 15.126C40.6014 15.126 39.9854 14.958 39.4347 14.622C38.884 14.286 38.45 13.8147 38.1327 13.208C37.8154 12.6013 37.6567 11.9107 37.6567 11.136ZM44.1527 11.15C44.1527 10.5713 44.036 10.0673 43.8027 9.638C43.5694 9.20867 43.252 8.882 42.8507 8.658C42.4587 8.42467 42.0247 8.308 41.5487 8.308C41.0727 8.308 40.6387 8.42 40.2467 8.644C39.8547 8.868 39.542 9.19467 39.3087 9.624C39.0754 10.0533 38.9587 10.5573 38.9587 11.136C38.9587 11.724 39.0754 12.2373 39.3087 12.676C39.542 13.1053 39.8547 13.4367 40.2467 13.67C40.6387 13.894 41.0727 14.006 41.5487 14.006C42.0247 14.006 42.4587 13.894 42.8507 13.67C43.252 13.4367 43.5694 13.1053 43.8027 12.676C44.036 12.2373 44.1527 11.7287 44.1527 11.15ZM50.3096 15.126C49.7216 15.126 49.1943 15.028 48.7276 14.832C48.261 14.6267 47.8923 14.3467 47.6216 13.992C47.351 13.628 47.2016 13.2127 47.1736 12.746H48.4896C48.527 13.1287 48.7043 13.4413 49.0216 13.684C49.3483 13.9267 49.773 14.048 50.2956 14.048C50.781 14.048 51.1636 13.9407 51.4436 13.726C51.7236 13.5113 51.8636 13.2407 51.8636 12.914C51.8636 12.578 51.7143 12.3307 51.4156 12.172C51.117 12.004 50.655 11.8407 50.0296 11.682C49.4603 11.5327 48.9936 11.3833 48.6296 11.234C48.275 11.0753 47.967 10.8467 47.7056 10.548C47.4536 10.24 47.3276 9.83867 47.3276 9.344C47.3276 8.952 47.4443 8.59267 47.6776 8.266C47.911 7.93933 48.2423 7.68267 48.6716 7.496C49.101 7.3 49.591 7.202 50.1416 7.202C50.991 7.202 51.677 7.41667 52.1996 7.846C52.7223 8.27533 53.0023 8.86333 53.0396 9.61H51.7656C51.7376 9.20867 51.5743 8.88667 51.2756 8.644C50.9863 8.40133 50.5943 8.28 50.0996 8.28C49.6423 8.28 49.2783 8.378 49.0076 8.574C48.737 8.77 48.6016 9.02667 48.6016 9.344C48.6016 9.596 48.681 9.806 48.8396 9.974C49.0076 10.1327 49.213 10.2633 49.4556 10.366C49.7076 10.4593 50.053 10.5667 50.4916 10.688C51.0423 10.8373 51.4903 10.9867 51.8356 11.136C52.181 11.276 52.475 11.4907 52.7176 11.78C52.9696 12.0693 53.1003 12.4473 53.1096 12.914C53.1096 13.334 52.993 13.712 52.7596 14.048C52.5263 14.384 52.195 14.65 51.7656 14.846C51.3456 15.0327 50.8603 15.126 50.3096 15.126ZM56.4621 8.378V12.9C56.4621 13.2733 56.5414 13.5393 56.7001 13.698C56.8587 13.8473 57.1341 13.922 57.5261 13.922H58.4641V15H57.3161C56.6067 15 56.0747 14.8367 55.7201 14.51C55.3654 14.1833 55.1881 13.6467 55.1881 12.9V8.378H54.1941V7.328H55.1881V5.396H56.4621V7.328H58.4641V8.378H56.4621ZM66.7781 5.242C67.8421 5.242 68.7614 5.44267 69.5361 5.844C70.3201 6.236 70.9174 6.80067 71.3281 7.538C71.7481 8.27533 71.9581 9.14333 71.9581 10.142C71.9581 11.1407 71.7481 12.0087 71.3281 12.746C70.9174 13.474 70.3201 14.034 69.5361 14.426C68.7614 14.8087 67.8421 15 66.7781 15H63.7401V5.242H66.7781ZM66.7781 13.95C68.0381 13.95 68.9994 13.6187 69.6621 12.956C70.3248 12.284 70.6561 11.346 70.6561 10.142C70.6561 8.92867 70.3201 7.98133 69.6481 7.3C68.9854 6.61867 68.0288 6.278 66.7781 6.278H65.0141V13.95H66.7781ZM80.6385 10.87C80.6385 11.1127 80.6245 11.3693 80.5965 11.64H74.4645C74.5112 12.396 74.7679 12.9887 75.2345 13.418C75.7105 13.838 76.2845 14.048 76.9565 14.048C77.5072 14.048 77.9645 13.922 78.3285 13.67C78.7019 13.4087 78.9632 13.0633 79.1125 12.634H80.4845C80.2792 13.3713 79.8685 13.9733 79.2525 14.44C78.6365 14.8973 77.8712 15.126 76.9565 15.126C76.2285 15.126 75.5752 14.9627 74.9965 14.636C74.4272 14.3093 73.9792 13.8473 73.6525 13.25C73.3259 12.6433 73.1625 11.9433 73.1625 11.15C73.1625 10.3567 73.3212 9.66133 73.6385 9.064C73.9559 8.46667 74.3992 8.00933 74.9685 7.692C75.5472 7.36533 76.2099 7.202 76.9565 7.202C77.6845 7.202 78.3285 7.36067 78.8885 7.678C79.4485 7.99533 79.8779 8.434 80.1765 8.994C80.4845 9.54467 80.6385 10.17 80.6385 10.87ZM79.3225 10.604C79.3225 10.1187 79.2152 9.70333 79.0005 9.358C78.7859 9.00333 78.4919 8.73733 78.1185 8.56C77.7545 8.37333 77.3485 8.28 76.9005 8.28C76.2565 8.28 75.7059 8.48533 75.2485 8.896C74.8005 9.30667 74.5439 9.876 74.4785 10.604H79.3225ZM83.5942 4.64V15H82.3202V4.64H83.5942ZM86.4235 6.082C86.1808 6.082 85.9755 5.998 85.8075 5.83C85.6395 5.662 85.5555 5.45667 85.5555 5.214C85.5555 4.97133 85.6395 4.766 85.8075 4.598C85.9755 4.43 86.1808 4.346 86.4235 4.346C86.6568 4.346 86.8528 4.43 87.0115 4.598C87.1795 4.766 87.2635 4.97133 87.2635 5.214C87.2635 5.45667 87.1795 5.662 87.0115 5.83C86.8528 5.998 86.6568 6.082 86.4235 6.082ZM87.0395 7.328V15H85.7655V7.328H87.0395ZM92.0668 13.824L94.4468 7.328H95.8048L92.7948 15H91.3108L88.3008 7.328H89.6728L92.0668 13.824ZM104.058 10.87C104.058 11.1127 104.044 11.3693 104.016 11.64H97.8845C97.9311 12.396 98.1878 12.9887 98.6545 13.418C99.1305 13.838 99.7045 14.048 100.376 14.048C100.927 14.048 101.384 13.922 101.748 13.67C102.122 13.4087 102.383 13.0633 102.532 12.634H103.904C103.699 13.3713 103.288 13.9733 102.672 14.44C102.056 14.8973 101.291 15.126 100.376 15.126C99.6485 15.126 98.9951 14.9627 98.4165 14.636C97.8471 14.3093 97.3991 13.8473 97.0725 13.25C96.7458 12.6433 96.5825 11.9433 96.5825 11.15C96.5825 10.3567 96.7411 9.66133 97.0585 9.064C97.3758 8.46667 97.8191 8.00933 98.3885 7.692C98.9671 7.36533 99.6298 7.202 100.376 7.202C101.104 7.202 101.748 7.36067 102.308 7.678C102.868 7.99533 103.298 8.434 103.596 8.994C103.904 9.54467 104.058 10.17 104.058 10.87ZM102.742 10.604C102.742 10.1187 102.635 9.70333 102.42 9.358C102.206 9.00333 101.912 8.73733 101.538 8.56C101.174 8.37333 100.768 8.28 100.32 8.28C99.6765 8.28 99.1258 8.48533 98.6685 8.896C98.2205 9.30667 97.9638 9.876 97.8985 10.604H102.742ZM107.014 8.574C107.238 8.13533 107.555 7.79467 107.966 7.552C108.386 7.30933 108.895 7.188 109.492 7.188V8.504H109.156C107.728 8.504 107.014 9.27867 107.014 10.828V15H105.74V7.328H107.014V8.574ZM117.571 7.328L112.951 18.612H111.635L113.147 14.916L110.053 7.328H111.467L113.875 13.544L116.255 7.328H117.571Z" fill="#7E7E7E"/>
<g clip-path="url(#clip0_639_3857)">
<path d="M5.41634 15.8333H3.74967C3.51967 15.8333 3.33301 15.6467 3.33301 15.4167C3.33301 15.1867 3.51967 15 3.74967 15H5.41634C5.64634 15 5.83301 15.1867 5.83301 15.4167C5.83301 15.6467 5.64634 15.8333 5.41634 15.8333Z" fill="#7E7E7E"/>
<path d="M18.9583 15.8334H17.9166C17.6866 15.8334 17.5 15.6467 17.5 15.4167C17.5 15.1867 17.6866 15 17.9166 15H18.6125L19.1741 12.0067C19.1666 10.475 17.8583 9.16671 16.25 9.16671H13.5141L12.1883 15H14.5833C14.8133 15 15 15.1867 15 15.4167C15 15.6467 14.8133 15.8334 14.5833 15.8334H11.6666C11.54 15.8334 11.42 15.7759 11.3408 15.6767C11.2616 15.5784 11.2316 15.4484 11.26 15.325L12.775 8.65837C12.8183 8.46754 12.9866 8.33337 13.1816 8.33337H16.25C18.3175 8.33337 20 10.0159 20 12.0834L19.3675 15.4934C19.3308 15.6909 19.1591 15.8334 18.9583 15.8334Z" fill="#7E7E7E"/>
<path d="M16.2503 17.5C15.102 17.5 14.167 16.5659 14.167 15.4167C14.167 14.2675 15.102 13.3334 16.2503 13.3334C17.3987 13.3334 18.3337 14.2675 18.3337 15.4167C18.3337 16.5659 17.3987 17.5 16.2503 17.5ZM16.2503 14.1667C15.5612 14.1667 15.0003 14.7275 15.0003 15.4167C15.0003 16.1059 15.5612 16.6667 16.2503 16.6667C16.9395 16.6667 17.5003 16.1059 17.5003 15.4167C17.5003 14.7275 16.9395 14.1667 16.2503 14.1667Z" fill="#7E7E7E"/>
<path d="M7.08333 17.5C5.935 17.5 5 16.5659 5 15.4167C5 14.2675 5.935 13.3334 7.08333 13.3334C8.23167 13.3334 9.16667 14.2675 9.16667 15.4167C9.16667 16.5659 8.23167 17.5 7.08333 17.5ZM7.08333 14.1667C6.39417 14.1667 5.83333 14.7275 5.83333 15.4167C5.83333 16.1059 6.39417 16.6667 7.08333 16.6667C7.7725 16.6667 8.33333 16.1059 8.33333 15.4167C8.33333 14.7275 7.7725 14.1667 7.08333 14.1667Z" fill="#7E7E7E"/>
<path d="M5.41699 8.33333H2.08366C1.85366 8.33333 1.66699 8.14667 1.66699 7.91667C1.66699 7.68667 1.85366 7.5 2.08366 7.5H5.41699C5.64699 7.5 5.83366 7.68667 5.83366 7.91667C5.83366 8.14667 5.64699 8.33333 5.41699 8.33333Z" fill="#7E7E7E"/>
<path d="M5.41634 10.8333H1.24967C1.01967 10.8333 0.833008 10.6467 0.833008 10.4167C0.833008 10.1867 1.01967 10 1.24967 10H5.41634C5.64634 10 5.83301 10.1867 5.83301 10.4167C5.83301 10.6467 5.64634 10.8333 5.41634 10.8333Z" fill="#7E7E7E"/>
<path d="M5.41667 13.3333H0.416667C0.186667 13.3333 0 13.1467 0 12.9167C0 12.6867 0.186667 12.5 0.416667 12.5H5.41667C5.64667 12.5 5.83333 12.6867 5.83333 12.9167C5.83333 13.1467 5.64667 13.3333 5.41667 13.3333Z" fill="#7E7E7E"/>
<path d="M11.6663 15.8334H8.74967C8.51967 15.8334 8.33301 15.6467 8.33301 15.4167C8.33301 15.1867 8.51967 15 8.74967 15H11.3338L13.2272 6.66671H3.74967C3.51967 6.66671 3.33301 6.48004 3.33301 6.25004C3.33301 6.02004 3.51967 5.83337 3.74967 5.83337H13.7497C13.8763 5.83337 13.9963 5.89087 14.0755 5.99004C14.1547 6.08837 14.1847 6.21837 14.1563 6.34171L12.073 15.5084C12.0297 15.6992 11.8605 15.8334 11.6663 15.8334Z" fill="#7E7E7E"/>
</g>
<defs>
<clipPath id="clip0_639_3857">
<rect width="20" height="20" fill="white"/>
</clipPath>
</defs>
</svg>
