<svg width="182" height="21" viewBox="0 0 182 21" fill="none" xmlns="http://www.w3.org/2000/svg">
<path d="M30.532 6.04V4.878H33.164V15H31.876V6.04H30.532ZM35.3524 9.834C35.3524 8.22867 35.6137 6.978 36.1364 6.082C36.659 5.17667 37.5737 4.724 38.8804 4.724C40.1777 4.724 41.0877 5.17667 41.6104 6.082C42.133 6.978 42.3944 8.22867 42.3944 9.834C42.3944 11.4673 42.133 12.7367 41.6104 13.642C41.0877 14.5473 40.1777 15 38.8804 15C37.5737 15 36.659 14.5473 36.1364 13.642C35.6137 12.7367 35.3524 11.4673 35.3524 9.834ZM41.1344 9.834C41.1344 9.022 41.0784 8.336 40.9664 7.776C40.8637 7.20667 40.6444 6.74933 40.3084 6.404C39.9817 6.05867 39.5057 5.886 38.8804 5.886C38.2457 5.886 37.7604 6.05867 37.4244 6.404C37.0977 6.74933 36.8784 7.20667 36.7664 7.776C36.6637 8.336 36.6124 9.022 36.6124 9.834C36.6124 10.674 36.6637 11.3787 36.7664 11.948C36.8784 12.5173 37.0977 12.9747 37.4244 13.32C37.7604 13.6653 38.2457 13.838 38.8804 13.838C39.5057 13.838 39.9817 13.6653 40.3084 13.32C40.6444 12.9747 40.8637 12.5173 40.9664 11.948C41.0784 11.3787 41.1344 10.674 41.1344 9.834ZM44.1434 9.834C44.1434 8.22867 44.4047 6.978 44.9274 6.082C45.4501 5.17667 46.3647 4.724 47.6714 4.724C48.9687 4.724 49.8787 5.17667 50.4014 6.082C50.9241 6.978 51.1854 8.22867 51.1854 9.834C51.1854 11.4673 50.9241 12.7367 50.4014 13.642C49.8787 14.5473 48.9687 15 47.6714 15C46.3647 15 45.4501 14.5473 44.9274 13.642C44.4047 12.7367 44.1434 11.4673 44.1434 9.834ZM49.9254 9.834C49.9254 9.022 49.8694 8.336 49.7574 7.776C49.6547 7.20667 49.4354 6.74933 49.0994 6.404C48.7727 6.05867 48.2967 5.886 47.6714 5.886C47.0367 5.886 46.5514 6.05867 46.2154 6.404C45.8887 6.74933 45.6694 7.20667 45.5574 7.776C45.4547 8.336 45.4034 9.022 45.4034 9.834C45.4034 10.674 45.4547 11.3787 45.5574 11.948C45.6694 12.5173 45.8887 12.9747 46.2154 13.32C46.5514 13.6653 47.0367 13.838 47.6714 13.838C48.2967 13.838 48.7727 13.6653 49.0994 13.32C49.4354 12.9747 49.6547 12.5173 49.7574 11.948C49.8694 11.3787 49.9254 10.674 49.9254 9.834ZM52.6544 7.16C52.6544 6.52533 52.8457 6.02133 53.2284 5.648C53.6111 5.26533 54.1011 5.074 54.6984 5.074C55.2957 5.074 55.7857 5.26533 56.1684 5.648C56.5511 6.02133 56.7424 6.52533 56.7424 7.16C56.7424 7.804 56.5511 8.31733 56.1684 8.7C55.7857 9.07333 55.2957 9.26 54.6984 9.26C54.1011 9.26 53.6111 9.07333 53.2284 8.7C52.8457 8.31733 52.6544 7.804 52.6544 7.16ZM60.8304 5.228L55.1604 15H53.9004L59.5704 5.228H60.8304ZM54.6984 5.858C54.3811 5.858 54.1291 5.97 53.9424 6.194C53.7651 6.40867 53.6764 6.73067 53.6764 7.16C53.6764 7.58933 53.7651 7.916 53.9424 8.14C54.1291 8.364 54.3811 8.476 54.6984 8.476C55.0157 8.476 55.2677 8.364 55.4544 8.14C55.6411 7.90667 55.7344 7.58 55.7344 7.16C55.7344 6.73067 55.6411 6.40867 55.4544 6.194C55.2677 5.97 55.0157 5.858 54.6984 5.858ZM58.0164 13.068C58.0164 12.424 58.2077 11.9153 58.5904 11.542C58.9731 11.1593 59.4631 10.968 60.0604 10.968C60.6577 10.968 61.1431 11.1593 61.5164 11.542C61.8991 11.9153 62.0904 12.424 62.0904 13.068C62.0904 13.7027 61.8991 14.2113 61.5164 14.594C61.1431 14.9767 60.6577 15.168 60.0604 15.168C59.4631 15.168 58.9731 14.9813 58.5904 14.608C58.2077 14.2253 58.0164 13.712 58.0164 13.068ZM60.0464 11.766C59.7291 11.766 59.4771 11.878 59.2904 12.102C59.1037 12.3167 59.0104 12.6387 59.0104 13.068C59.0104 13.488 59.1037 13.81 59.2904 14.034C59.4771 14.2487 59.7291 14.356 60.0464 14.356C60.3637 14.356 60.6157 14.2487 60.8024 14.034C60.9891 13.81 61.0824 13.488 61.0824 13.068C61.0824 12.6387 60.9891 12.3167 60.8024 12.102C60.6157 11.878 60.3637 11.766 60.0464 11.766ZM70.5939 15.098C69.9499 15.098 69.3712 14.986 68.8579 14.762C68.3539 14.5287 67.9572 14.2113 67.6679 13.81C67.3785 13.3993 67.2292 12.928 67.2199 12.396H68.5779C68.6245 12.8533 68.8112 13.2407 69.1379 13.558C69.4739 13.866 69.9592 14.02 70.5939 14.02C71.2005 14.02 71.6765 13.8707 72.0219 13.572C72.3765 13.264 72.5539 12.872 72.5539 12.396C72.5539 12.0227 72.4512 11.7193 72.2459 11.486C72.0405 11.2527 71.7839 11.0753 71.4759 10.954C71.1679 10.8327 70.7525 10.702 70.2299 10.562C69.5859 10.394 69.0679 10.226 68.6759 10.058C68.2932 9.89 67.9619 9.62867 67.6819 9.274C67.4112 8.91 67.2759 8.42467 67.2759 7.818C67.2759 7.286 67.4112 6.81467 67.6819 6.404C67.9525 5.99333 68.3305 5.676 68.8159 5.452C69.3105 5.228 69.8752 5.116 70.5099 5.116C71.4245 5.116 72.1712 5.34467 72.7499 5.802C73.3379 6.25933 73.6692 6.866 73.7439 7.622H72.3439C72.2972 7.24867 72.1012 6.922 71.7559 6.642C71.4105 6.35267 70.9532 6.208 70.3839 6.208C69.8519 6.208 69.4179 6.348 69.0819 6.628C68.7459 6.89867 68.5779 7.28133 68.5779 7.776C68.5779 8.13067 68.6759 8.42 68.8719 8.644C69.0772 8.868 69.3245 9.04067 69.6139 9.162C69.9125 9.274 70.3279 9.40467 70.8599 9.554C71.5039 9.73133 72.0219 9.90867 72.4139 10.086C72.8059 10.254 73.1419 10.52 73.4219 10.884C73.7019 11.2387 73.8419 11.724 73.8419 12.34C73.8419 12.816 73.7159 13.264 73.4639 13.684C73.2119 14.104 72.8385 14.4447 72.3439 14.706C71.8492 14.9673 71.2659 15.098 70.5939 15.098ZM82.7167 10.87C82.7167 11.1127 82.7027 11.3693 82.6747 11.64H76.5427C76.5893 12.396 76.846 12.9887 77.3127 13.418C77.7887 13.838 78.3627 14.048 79.0347 14.048C79.5853 14.048 80.0427 13.922 80.4067 13.67C80.78 13.4087 81.0413 13.0633 81.1907 12.634H82.5627C82.3573 13.3713 81.9467 13.9733 81.3307 14.44C80.7147 14.8973 79.9493 15.126 79.0347 15.126C78.3067 15.126 77.6533 14.9627 77.0747 14.636C76.5053 14.3093 76.0573 13.8473 75.7307 13.25C75.404 12.6433 75.2407 11.9433 75.2407 11.15C75.2407 10.3567 75.3993 9.66133 75.7167 9.064C76.034 8.46667 76.4773 8.00933 77.0467 7.692C77.6253 7.36533 78.288 7.202 79.0347 7.202C79.7627 7.202 80.4067 7.36067 80.9667 7.678C81.5267 7.99533 81.956 8.434 82.2547 8.994C82.5627 9.54467 82.7167 10.17 82.7167 10.87ZM81.4007 10.604C81.4007 10.1187 81.2933 9.70333 81.0787 9.358C80.864 9.00333 80.57 8.73733 80.1967 8.56C79.8327 8.37333 79.4267 8.28 78.9787 8.28C78.3347 8.28 77.784 8.48533 77.3267 8.896C76.8787 9.30667 76.622 9.876 76.5567 10.604H81.4007ZM83.9223 11.15C83.9223 10.3567 84.081 9.666 84.3983 9.078C84.7156 8.48067 85.1543 8.01867 85.7143 7.692C86.2836 7.36533 86.9323 7.202 87.6603 7.202C88.603 7.202 89.3776 7.43067 89.9843 7.888C90.6003 8.34533 91.0063 8.98 91.2023 9.792H89.8303C89.6996 9.32533 89.443 8.95667 89.0603 8.686C88.687 8.41533 88.2203 8.28 87.6603 8.28C86.9323 8.28 86.3443 8.532 85.8963 9.036C85.4483 9.53067 85.2243 10.2353 85.2243 11.15C85.2243 12.074 85.4483 12.788 85.8963 13.292C86.3443 13.796 86.9323 14.048 87.6603 14.048C88.2203 14.048 88.687 13.9173 89.0603 13.656C89.4336 13.3947 89.6903 13.0213 89.8303 12.536H91.2023C90.997 13.32 90.5863 13.95 89.9703 14.426C89.3543 14.8927 88.5843 15.126 87.6603 15.126C86.9323 15.126 86.2836 14.9627 85.7143 14.636C85.1543 14.3093 84.7156 13.8473 84.3983 13.25C84.081 12.6527 83.9223 11.9527 83.9223 11.15ZM99.7062 7.328V15H98.4322V13.866C98.1896 14.258 97.8489 14.566 97.4102 14.79C96.9809 15.0047 96.5049 15.112 95.9822 15.112C95.3849 15.112 94.8482 14.9907 94.3722 14.748C93.8962 14.496 93.5182 14.1227 93.2382 13.628C92.9676 13.1333 92.8322 12.5313 92.8322 11.822V7.328H94.0922V11.654C94.0922 12.41 94.2836 12.9933 94.6662 13.404C95.0489 13.8053 95.5716 14.006 96.2342 14.006C96.9156 14.006 97.4522 13.796 97.8442 13.376C98.2362 12.956 98.4322 12.3447 98.4322 11.542V7.328H99.7062ZM103.131 8.574C103.355 8.13533 103.673 7.79467 104.083 7.552C104.503 7.30933 105.012 7.188 105.609 7.188V8.504H105.273C103.845 8.504 103.131 9.27867 103.131 10.828V15H101.857V7.328H103.131V8.574ZM114.08 10.87C114.08 11.1127 114.066 11.3693 114.038 11.64H107.906C107.953 12.396 108.209 12.9887 108.676 13.418C109.152 13.838 109.726 14.048 110.398 14.048C110.949 14.048 111.406 13.922 111.77 13.67C112.143 13.4087 112.405 13.0633 112.554 12.634H113.926C113.721 13.3713 113.31 13.9733 112.694 14.44C112.078 14.8973 111.313 15.126 110.398 15.126C109.67 15.126 109.017 14.9627 108.438 14.636C107.869 14.3093 107.421 13.8473 107.094 13.25C106.767 12.6433 106.604 11.9433 106.604 11.15C106.604 10.3567 106.763 9.66133 107.08 9.064C107.397 8.46667 107.841 8.00933 108.41 7.692C108.989 7.36533 109.651 7.202 110.398 7.202C111.126 7.202 111.77 7.36067 112.33 7.678C112.89 7.99533 113.319 8.434 113.618 8.994C113.926 9.54467 114.08 10.17 114.08 10.87ZM112.764 10.604C112.764 10.1187 112.657 9.70333 112.442 9.358C112.227 9.00333 111.933 8.73733 111.56 8.56C111.196 8.37333 110.79 8.28 110.342 8.28C109.698 8.28 109.147 8.48533 108.69 8.896C108.242 9.30667 107.985 9.876 107.92 10.604H112.764ZM126.018 8.098C126.018 8.91 125.738 9.58667 125.178 10.128C124.627 10.66 123.783 10.926 122.644 10.926H120.768V15H119.494V5.242H122.644C123.745 5.242 124.581 5.508 125.15 6.04C125.729 6.572 126.018 7.258 126.018 8.098ZM122.644 9.876C123.353 9.876 123.876 9.722 124.212 9.414C124.548 9.106 124.716 8.66733 124.716 8.098C124.716 6.894 124.025 6.292 122.644 6.292H120.768V9.876H122.644ZM127.125 11.136C127.125 10.352 127.284 9.666 127.601 9.078C127.919 8.48067 128.353 8.01867 128.903 7.692C129.463 7.36533 130.084 7.202 130.765 7.202C131.437 7.202 132.021 7.34667 132.515 7.636C133.01 7.92533 133.379 8.28933 133.621 8.728V7.328H134.909V15H133.621V13.572C133.369 14.02 132.991 14.3933 132.487 14.692C131.993 14.9813 131.414 15.126 130.751 15.126C130.07 15.126 129.454 14.958 128.903 14.622C128.353 14.286 127.919 13.8147 127.601 13.208C127.284 12.6013 127.125 11.9107 127.125 11.136ZM133.621 11.15C133.621 10.5713 133.505 10.0673 133.271 9.638C133.038 9.20867 132.721 8.882 132.319 8.658C131.927 8.42467 131.493 8.308 131.017 8.308C130.541 8.308 130.107 8.42 129.715 8.644C129.323 8.868 129.011 9.19467 128.777 9.624C128.544 10.0533 128.427 10.5573 128.427 11.136C128.427 11.724 128.544 12.2373 128.777 12.676C129.011 13.1053 129.323 13.4367 129.715 13.67C130.107 13.894 130.541 14.006 131.017 14.006C131.493 14.006 131.927 13.894 132.319 13.67C132.721 13.4367 133.038 13.1053 133.271 12.676C133.505 12.2373 133.621 11.7287 133.621 11.15ZM143.67 7.328L139.05 18.612H137.734L139.246 14.916L136.152 7.328H137.566L139.974 13.544L142.354 7.328H143.67ZM154.177 7.188C154.774 7.188 155.306 7.314 155.773 7.566C156.24 7.80867 156.608 8.17733 156.879 8.672C157.15 9.16667 157.285 9.76867 157.285 10.478V15H156.025V10.66C156.025 9.89467 155.834 9.31133 155.451 8.91C155.078 8.49933 154.569 8.294 153.925 8.294C153.262 8.294 152.735 8.50867 152.343 8.938C151.951 9.358 151.755 9.96933 151.755 10.772V15H150.495V10.66C150.495 9.89467 150.304 9.31133 149.921 8.91C149.548 8.49933 149.039 8.294 148.395 8.294C147.732 8.294 147.205 8.50867 146.813 8.938C146.421 9.358 146.225 9.96933 146.225 10.772V15H144.951V7.328H146.225V8.434C146.477 8.03267 146.813 7.72467 147.233 7.51C147.662 7.29533 148.134 7.188 148.647 7.188C149.291 7.188 149.86 7.33267 150.355 7.622C150.85 7.91133 151.218 8.336 151.461 8.896C151.676 8.35467 152.03 7.93467 152.525 7.636C153.02 7.33733 153.57 7.188 154.177 7.188ZM166.375 10.87C166.375 11.1127 166.361 11.3693 166.333 11.64H160.201C160.248 12.396 160.504 12.9887 160.971 13.418C161.447 13.838 162.021 14.048 162.693 14.048C163.244 14.048 163.701 13.922 164.065 13.67C164.438 13.4087 164.7 13.0633 164.849 12.634H166.221C166.016 13.3713 165.605 13.9733 164.989 14.44C164.373 14.8973 163.608 15.126 162.693 15.126C161.965 15.126 161.312 14.9627 160.733 14.636C160.164 14.3093 159.716 13.8473 159.389 13.25C159.062 12.6433 158.899 11.9433 158.899 11.15C158.899 10.3567 159.058 9.66133 159.375 9.064C159.692 8.46667 160.136 8.00933 160.705 7.692C161.284 7.36533 161.946 7.202 162.693 7.202C163.421 7.202 164.065 7.36067 164.625 7.678C165.185 7.99533 165.614 8.434 165.913 8.994C166.221 9.54467 166.375 10.17 166.375 10.87ZM165.059 10.604C165.059 10.1187 164.952 9.70333 164.737 9.358C164.522 9.00333 164.228 8.73733 163.855 8.56C163.491 8.37333 163.085 8.28 162.637 8.28C161.993 8.28 161.442 8.48533 160.985 8.896C160.537 9.30667 160.28 9.876 160.215 10.604H165.059ZM171.795 7.188C172.728 7.188 173.484 7.47267 174.063 8.042C174.641 8.602 174.931 9.414 174.931 10.478V15H173.671V10.66C173.671 9.89467 173.479 9.31133 173.097 8.91C172.714 8.49933 172.191 8.294 171.529 8.294C170.857 8.294 170.32 8.504 169.919 8.924C169.527 9.344 169.331 9.95533 169.331 10.758V15H168.057V7.328H169.331V8.42C169.583 8.028 169.923 7.72467 170.353 7.51C170.791 7.29533 171.272 7.188 171.795 7.188ZM178.566 8.378V12.9C178.566 13.2733 178.645 13.5393 178.804 13.698C178.962 13.8473 179.238 13.922 179.63 13.922H180.568V15H179.42C178.71 15 178.178 14.8367 177.824 14.51C177.469 14.1833 177.292 13.6467 177.292 12.9V8.378H176.298V7.328H177.292V5.396H178.566V7.328H180.568V8.378H178.566Z" fill="#7E7E7E"/>
<g clip-path="url(#clip0_639_3892)">
<path d="M19.5108 13.8219C19.2209 13.5538 18.8477 13.4089 18.4676 13.3865C18.7698 12.583 18.9233 11.737 18.9233 10.8622C18.9233 9.3167 18.4418 7.84416 17.5307 6.60385C17.402 6.42846 17.1554 6.39072 16.98 6.51955C16.8047 6.64838 16.767 6.8949 16.8957 7.07025C17.7068 8.1744 18.1354 9.48564 18.1354 10.8622C18.1354 11.8216 17.9287 12.7418 17.522 13.5999C17.413 13.661 17.3101 13.7347 17.216 13.8217L14.5515 16.2824C14.5119 16.319 14.3314 16.4379 13.666 16.4379C13.6618 16.4379 13.6576 16.4379 13.6534 16.4379C12.6074 16.4351 11.0155 16.4322 9.81293 16.4301L9.24574 16.4291C8.94051 16.4291 8.69219 16.2133 8.69219 15.9482C8.69219 15.687 8.9457 15.4662 9.24574 15.4662H11.7706C12.5762 15.4662 13.2316 14.8474 13.2316 14.0868C13.2316 14.0159 13.2258 13.9463 13.2148 13.8782C13.8426 13.5961 14.2643 12.9692 14.2643 12.2519C14.2643 11.2685 13.4694 10.4683 12.4923 10.4683H10.9725C10.4237 10.4683 9.9773 10.0211 9.9773 9.47139C9.9773 8.92232 10.4237 8.47561 10.9725 8.47561H11.7231H11.7241H13.8704C14.0879 8.47561 14.2643 8.29924 14.2643 8.08166C14.2643 7.86412 14.0879 7.68775 13.8704 7.68775H12.119L12.1214 6.73947C12.1219 6.52186 11.946 6.3451 11.7284 6.34455C11.7281 6.34455 11.7277 6.34455 11.7274 6.34455C11.5103 6.34455 11.3341 6.52029 11.3335 6.73748L11.3311 7.68775H10.9725C9.98934 7.68775 9.18945 8.48787 9.18945 9.47139C9.18945 10.4555 9.98938 11.2562 10.9725 11.2562H12.4923C13.0258 11.2562 13.4764 11.7122 13.4764 12.2519C13.4764 12.6556 13.2234 13.0177 12.8615 13.1705C12.5937 12.8866 12.204 12.7073 11.7706 12.7073H5.5884C5.40926 12.1098 5.31844 11.4906 5.31844 10.8622C5.31844 10.3624 5.37559 9.86967 5.48816 9.391C5.53535 9.42197 5.58289 9.45182 5.63082 9.48049C5.84766 9.61037 6.01551 9.67533 6.18359 9.67533C6.35156 9.67533 6.51969 9.61045 6.73715 9.48068C7.51578 9.01533 8.19879 8.24221 8.76727 7.18272C9.18141 6.41041 9.43836 5.61162 9.52539 4.8401C10.2293 4.58174 10.9688 4.45049 11.7275 4.45049C12.633 4.45049 13.5075 4.63541 14.3268 5.00006C14.3789 5.02322 14.4332 5.0342 14.4868 5.0342C14.6376 5.0342 14.7816 4.94705 14.8469 4.80033C14.9353 4.60158 14.8459 4.36873 14.6471 4.28025C13.7264 3.87045 12.744 3.66268 11.7275 3.66268C10.9795 3.66268 10.2479 3.77643 9.54516 4.00061C9.48957 3.57252 9.2684 3.43029 8.93523 3.251L6.37121 1.86732C6.25445 1.80432 6.11379 1.80432 5.99703 1.86732L3.43156 3.25166C3.04828 3.45795 2.81316 3.61482 2.8082 4.21482C2.8 5.17533 3.07379 6.20162 3.59992 7.18275C3.96059 7.85494 4.36785 8.4115 4.8166 8.84791C4.62684 9.49818 4.53051 10.1745 4.53051 10.8622C4.53051 11.5228 4.61988 12.1747 4.79656 12.806C4.45887 12.8933 4.1391 13.0368 3.85301 13.2287C3.72664 12.6199 3.15836 12.1592 2.4782 12.1592H1.40121C0.628594 12.1592 0 12.7536 0 13.4844V18.7387C0 19.4688 0.628594 20.0628 1.40121 20.0628H2.4782C3.25082 20.0628 3.87941 19.4688 3.87941 18.7387V18.7303L6.37598 19.85C6.38434 19.8537 6.39285 19.8572 6.40145 19.8603C7.17508 20.1444 8.16258 20.1637 10.9057 20.1779C12.9825 20.1801 13.2538 20.1801 13.6479 20.1801C14.6397 20.1801 15.1469 20.0902 15.712 19.5341C16.8878 18.4472 18.0637 17.3612 19.2404 16.2744L19.5104 16.0251C19.8261 15.7338 20 15.3425 20 14.9233C20 14.5042 19.8261 14.1128 19.5108 13.8219ZM3.09156 18.7387C3.09156 19.0344 2.81645 19.2749 2.47824 19.2749H1.40121C1.06301 19.2749 0.787891 19.0344 0.787891 18.7387V13.4844C0.787891 13.1931 1.06875 12.947 1.40121 12.947H2.4782C2.81066 12.947 3.09152 13.1931 3.09152 13.4844V18.7387H3.09156ZM4.29426 6.81029C3.83043 5.94541 3.58898 5.05022 3.59609 4.22139C3.59691 4.12084 3.60437 4.07639 3.60844 4.05943C3.63996 4.03424 3.72723 3.98725 3.805 3.94537L6.18414 2.66154L8.55211 3.93939L8.56184 3.94463C8.63969 3.98654 8.72707 4.03357 8.75875 4.05889C8.76281 4.07596 8.77023 4.12072 8.77106 4.22201C8.77914 5.0485 8.53769 5.9435 8.07289 6.81022C7.57285 7.74221 6.98742 8.41311 6.33313 8.8042C6.2459 8.85627 6.20367 8.87639 6.18379 8.88412C6.16402 8.87635 6.12207 8.85627 6.03566 8.80455C6.03555 8.80447 6.03547 8.8044 6.03535 8.80436C5.38895 8.41803 4.78687 7.72846 4.29426 6.81029ZM18.976 15.4462L18.7059 15.6957C17.5275 16.784 16.3501 17.8714 15.1726 18.9599C15.1694 18.9628 15.1662 18.9658 15.1631 18.9689C14.8312 19.2969 14.5921 19.3922 13.648 19.3922C13.2539 19.3922 12.9828 19.3922 10.9082 19.39C8.39754 19.377 7.34355 19.3622 6.68539 19.1252L3.87949 17.8667V14.2422C4.29563 13.7723 4.9182 13.4951 5.57094 13.4951H11.7707C12.0288 13.4951 12.2531 13.6237 12.366 13.8116C12.3682 13.8156 12.3702 13.8196 12.3725 13.8234C12.4177 13.9028 12.4438 13.9921 12.4438 14.0868C12.4438 14.413 12.1418 14.6783 11.7707 14.6783H9.24582C8.50613 14.6783 7.90438 15.248 7.90438 15.9482C7.90438 16.6478 8.50617 17.2169 9.24512 17.2169L9.8116 17.2179C11.0139 17.2201 12.6055 17.2229 13.6515 17.2257C13.6563 17.2258 13.661 17.2258 13.6658 17.2258C14.3657 17.2257 14.8175 17.1096 15.0863 16.861L17.7509 14.4003C18.0829 14.0932 18.6438 14.0932 18.9762 14.4006C19.1284 14.541 19.2122 14.7267 19.2122 14.9233C19.2121 15.12 19.1283 15.3056 18.976 15.4462Z" fill="#7E7E7E"/>
<path d="M16.0036 5.96298C16.1044 5.96298 16.2052 5.92454 16.2821 5.84762C16.436 5.69376 16.436 5.44434 16.2821 5.29047L16.2811 5.28938C16.1272 5.13563 15.8783 5.1361 15.7245 5.28997C15.5706 5.4438 15.5712 5.69376 15.725 5.84766C15.8019 5.92454 15.9028 5.96298 16.0036 5.96298Z" fill="#7E7E7E"/>
<path d="M6.01143 6.67507C6.11404 6.67507 6.21647 6.63522 6.29358 6.55612L7.68385 5.12987C7.83568 4.97405 7.83252 4.72464 7.6767 4.5728C7.52092 4.42093 7.2715 4.42409 7.11963 4.57991L5.99889 5.72972L5.60994 5.36565C5.45111 5.21698 5.20186 5.22515 5.05311 5.38409C4.90444 5.54292 4.91268 5.79222 5.07151 5.94089L5.74229 6.56878C5.81819 6.63979 5.9149 6.67507 6.01143 6.67507Z" fill="#7E7E7E"/>
</g>
<defs>
<clipPath id="clip0_639_3892">
<rect width="20" height="20" fill="white" transform="translate(0 1)"/>
</clipPath>
</defs>
</svg>
