<svg width="34" height="34" viewBox="0 0 34 34" fill="none" xmlns="http://www.w3.org/2000/svg">
<g clip-path="url(#clip0_548_1707)">
<path d="M32.1232 6.00856e-08H1.8752C0.839417 0.000518859 -0.000259339 0.840713 6.00856e-08 1.87675V32.1248C0.000518859 33.1606 0.840713 34.0003 1.87675 34H32.1232C33.1595 34.0003 33.9997 33.1603 34 32.124C34 32.1238 34 32.1235 34 32.1232V1.8752C33.9995 0.839417 33.1593 -0.000259339 32.1232 6.00856e-08Z" fill="#4267B2"/>
<path d="M23.4746 33.9999V20.8515H27.9072L28.5713 15.705H23.4746V12.4273C23.4746 10.9406 23.8873 9.92769 26.0191 9.92769H28.7207V5.3371C28.2507 5.27458 26.638 5.13477 24.7615 5.13477C20.8435 5.13477 18.1621 7.52539 18.1621 11.9175V15.705H13.7461V20.8515H18.1621V33.9999H23.4746Z" fill="white"/>
</g>
<defs>
<clipPath id="clip0_548_1707">
<rect width="34" height="34" rx="6" fill="white"/>
</clipPath>
</defs>
</svg>
