<svg width="80" height="80" viewBox="0 0 80 80" fill="none" xmlns="http://www.w3.org/2000/svg">
<g clip-path="url(#clip0_483_5689)">
<path d="M15.2693 72.1875L22.7313 70.6615C23.279 70.5495 23.8359 70.8064 24.1063 71.2956L27.906 78.1686C28.4112 79.0823 29.7391 79.0381 30.1824 78.0928L46.631 43.0151L30.287 35.3511L13.8555 70.3922C13.4091 71.3442 14.239 72.3981 15.2693 72.1875Z" fill="#B5E245"/>
<path d="M37.3654 38.6702L22.3251 70.7444L22.7312 70.6614C23.2788 70.5494 23.8357 70.8063 24.1062 71.2955L27.9059 78.1684C28.411 79.0822 29.739 79.038 30.1823 78.0927L46.6309 43.015L37.3654 38.6702Z" fill="#A8D340"/>
<path d="M64.7305 72.1875L57.2685 70.6615C56.7208 70.5495 56.1639 70.8064 55.8935 71.2956L52.0938 78.1686C51.5886 79.0823 50.2607 79.0381 49.8174 78.0928L33.3688 43.0151L49.7128 35.3511L66.1443 70.392C66.5907 71.3442 65.7608 72.3981 64.7305 72.1875Z" fill="#B5E245"/>
<path d="M66.1443 70.3922L49.7129 35.3511L40.4896 39.6761L55.5815 71.8603L55.8937 71.2956C56.1642 70.8064 56.721 70.5497 57.2687 70.6616L64.7307 72.1875C65.7609 72.3981 66.5907 71.3442 66.1443 70.3922Z" fill="#A8D340"/>
<path d="M43.8052 3.18223L44.6623 4.43848C45.946 6.3202 48.4123 6.98098 50.4649 5.99332L51.8352 5.33395C54.7593 3.92692 58.1827 5.90348 58.4262 9.13926L58.5402 10.6557C58.7112 12.9271 60.5167 14.7325 62.7881 14.9035L64.3045 15.0175C67.5402 15.2611 69.5168 18.6844 68.1098 21.6085L67.4504 22.9788C66.4627 25.0315 67.1235 27.4977 69.0052 28.7815L70.2615 29.6385C72.942 31.4672 72.942 35.4204 70.2615 37.2491L69.0052 38.1061C67.1235 39.3899 66.4627 41.8561 67.4504 43.9088L68.1098 45.2791C69.5168 48.2032 67.5402 51.6266 64.3045 51.8701L62.7881 51.9841C60.5167 52.1551 58.7112 53.9605 58.5402 56.2319L58.4262 57.7483C58.1826 60.9841 54.7593 62.9607 51.8352 61.5536L50.4649 60.8943C48.4123 59.9066 45.946 60.5674 44.6623 62.4491L43.8052 63.7054C41.9765 66.3858 38.0234 66.3858 36.1946 63.7054L35.3376 62.4491C34.0538 60.5674 31.5876 59.9066 29.5349 60.8943L28.1646 61.5536C25.2406 62.9607 21.8171 60.9841 21.5737 57.7483L21.4596 56.2319C21.2887 53.9605 19.4832 52.1551 17.2118 51.9841L15.6954 51.8701C12.4596 51.6265 10.4831 48.2032 11.8901 45.2791L12.5495 43.9088C13.5371 41.8561 12.8763 39.3899 10.9946 38.1061L9.73838 37.2491C7.05791 35.4204 7.05791 31.4672 9.73838 29.6385L10.9946 28.7815C12.8763 27.4977 13.5371 25.0315 12.5495 22.9788L11.8901 21.6085C10.4831 18.6844 12.4596 15.261 15.6954 15.0175L17.2118 14.9035C19.4832 14.7325 21.2887 12.9271 21.4596 10.6557L21.5737 9.13926C21.8173 5.90348 25.2406 3.92692 28.1646 5.33395L29.5349 5.99332C31.5876 6.98098 34.0538 6.3202 35.3376 4.43848L36.1946 3.18223C38.0234 0.501758 41.9765 0.501758 43.8052 3.18223Z" fill="#C6E873"/>
<path d="M40 55.1256C51.9744 55.1256 61.6817 45.4184 61.6817 33.4439C61.6817 21.4694 51.9744 11.7622 40 11.7622C28.0255 11.7622 18.3182 21.4694 18.3182 33.4439C18.3182 45.4184 28.0255 55.1256 40 55.1256Z" fill="#F2F9FF"/>
<path d="M40 11.7625C38.2419 11.7625 36.5331 11.9732 34.8962 12.3682C44.4076 14.6634 51.4742 23.2279 51.4742 33.4442C51.4742 43.6604 44.4076 52.2248 34.8962 54.5201C36.5331 54.9151 38.2419 55.1259 40 55.1259C51.9744 55.1259 61.6817 45.4187 61.6817 33.4442C61.6817 21.4696 51.9744 11.7625 40 11.7625Z" fill="#E2F4FF"/>
<path d="M40.3755 21.1626C40.1936 20.9002 39.8058 20.9002 39.6239 21.1626C37.8371 23.7393 30.6467 35.2954 39.5078 42.9826H40.4917C49.3527 35.2954 42.1624 23.7393 40.3755 21.1626Z" fill="#C6E873"/>
<path d="M39.9997 41.7855C39.999 32.3241 29.0458 29.778 26.4358 29.3057C26.1619 29.256 25.9227 29.4952 25.9722 29.7692C26.3944 32.1019 28.4744 41.0977 35.6665 42.9835H39.9996V41.7855H39.9997Z" fill="#B5E245"/>
<path d="M54.0271 29.7685C54.0766 29.4946 53.8376 29.2554 53.5635 29.3049C50.9535 29.7772 40.0005 32.3233 39.9998 41.7847V42.9825H44.3329C51.5249 41.0969 53.6049 32.1013 54.0271 29.7685Z" fill="#B5E245"/>
<path d="M69.6659 27.8136C68.252 26.8489 67.7645 25.0294 68.5065 23.4869C68.6728 22.8856 70.8879 20.0558 68.9632 16.7219C67.0331 13.3786 63.469 13.8886 62.8764 13.7348C61.1697 13.6064 59.8375 12.2744 59.709 10.5675C59.5523 9.96375 60.0557 6.40531 56.7218 4.48063C53.3787 2.55047 50.5472 4.77406 49.9568 4.93734C48.4145 5.67953 46.5948 5.19187 45.6301 3.77797C45.1926 3.33344 43.8495 0 40 0C36.1395 0 34.7993 3.34156 34.3697 3.77797C33.405 5.19203 31.5854 5.67938 30.0429 4.93734C29.4417 4.77109 26.612 2.55578 23.2781 4.48063C19.9348 6.41094 20.4448 9.97484 20.2909 10.5677C20.1625 12.2744 18.8304 13.6066 17.1236 13.735C16.5198 13.8917 12.9614 13.3883 11.0365 16.7222C9.10638 20.0653 11.33 22.8969 11.4933 23.487C12.2354 25.0294 11.7479 26.8491 10.3339 27.8137C9.88935 28.2512 6.55591 29.5945 6.55591 33.4441C6.55591 37.3045 9.89747 38.6448 10.3339 39.0744C11.7478 40.0391 12.2353 41.8586 11.4933 43.4011C11.327 44.0023 9.11185 46.8322 11.0365 50.1661C12.9668 53.5094 16.5308 52.9994 17.1236 53.1533C18.2984 53.2417 19.2956 53.9006 19.845 54.8594L12.7945 69.8947C12.3987 70.7389 12.5111 71.7183 13.0878 72.4509C13.6645 73.1836 14.5904 73.5223 15.5039 73.3358L22.9659 71.8098C23.0122 71.7998 23.0579 71.8217 23.0806 71.8627L26.8803 78.7356C27.8487 80.4875 30.3942 80.4008 31.2432 78.5905L33.5075 73.7619C33.7823 73.1759 33.53 72.4783 32.944 72.2034C32.3584 71.9286 31.6604 72.1809 31.3856 72.7669L29.1214 77.5955C29.1117 77.6161 29.0936 77.6545 29.0282 77.6569C28.9622 77.6566 28.9423 77.6217 28.9312 77.6017L25.1315 70.7288C24.6106 69.7862 23.5514 69.2983 22.4964 69.5137L15.0343 71.0397C15.0103 71.0445 14.9698 71.053 14.929 71.0011C14.8883 70.9494 14.9059 70.912 14.9162 70.8897L20.5695 58.8339C20.9509 60.328 21.9173 61.6222 23.2778 62.4077C26.6214 64.3381 29.4525 62.1142 30.0428 61.9509C31.5851 61.2089 33.4048 61.6963 34.3695 63.1103L35.2265 64.3664C35.2456 64.3945 35.2667 64.4208 35.2862 64.4484L33.7222 67.7839C33.4473 68.3698 33.6997 69.0675 34.2856 69.3423C34.8678 69.6155 35.5675 69.3684 35.844 68.7789L37.0979 66.1048C37.9667 66.6095 38.9639 66.8884 39.9997 66.8884C41.0353 66.8884 42.0326 66.6097 42.9014 66.1048L48.7562 78.5906C49.6061 80.4028 52.1517 80.4859 53.119 78.7359L56.9187 71.863C56.9414 71.822 56.9875 71.8005 57.0336 71.8102L64.4956 73.3361C65.4097 73.5231 66.335 73.1837 66.9115 72.4512C67.4884 71.7188 67.6007 70.7392 67.205 69.895L60.1545 54.8595C60.7039 53.9008 61.7011 53.2419 62.8761 53.1534C63.4798 52.9967 67.0382 53.5002 68.9629 50.1664C70.8931 46.8231 68.6695 43.9916 68.5062 43.4014C67.764 41.8591 68.2517 40.0394 69.6654 39.0747C70.11 38.6372 73.4436 37.2939 73.4436 33.4444C73.4439 29.5834 70.1025 28.2433 69.6659 27.8136ZM65.0706 71.0008C65.03 71.0525 64.9897 71.0444 64.9654 71.0394L57.5034 69.5134C56.4484 69.2981 55.3892 69.7859 54.8682 70.7284L51.0684 77.6016C51.0575 77.6214 51.0381 77.6562 50.9715 77.6566C50.9062 77.6544 50.8881 77.6159 50.8784 77.5952L44.7136 64.4481C44.7331 64.4205 44.7542 64.3942 44.7733 64.3661L45.6303 63.11C46.595 61.6961 48.4145 61.2084 49.957 61.9506C50.5582 62.1169 53.3882 64.3322 56.722 62.4073C58.0825 61.6219 59.0489 60.3277 59.4301 58.8336L65.0834 70.8895C65.0939 70.9117 65.1114 70.9491 65.0706 71.0008ZM68.3451 37.1384C65.9667 38.7612 65.1464 41.8225 66.3948 44.4172C66.6287 45.1677 68.1556 46.8778 66.9336 48.9944C65.7129 51.1086 63.4814 50.6403 62.7003 50.8162C59.829 51.0323 57.5879 53.2733 57.3718 56.1447C57.1992 56.9116 57.6665 59.1559 55.55 60.378C53.4357 61.5986 51.7372 60.0773 50.9728 59.8392C48.3779 58.5906 45.317 59.4109 43.694 61.7895C43.1756 62.3102 42.5057 64.5447 39.9997 64.5447C37.4883 64.5447 36.8715 62.358 36.3053 61.7894C35.1918 60.1575 33.4015 59.2591 31.5492 59.2591C28.3739 59.2591 27.1886 61.9592 24.4497 60.378C23.4509 59.8013 22.8284 58.8111 22.742 57.6611L22.6279 56.1447C22.4118 53.2734 20.1709 51.0323 17.2995 50.8162C16.525 50.6419 14.2881 51.1108 13.0662 48.9944C11.8454 46.8803 13.3668 45.1817 13.605 44.4173C14.8536 41.8227 14.0333 38.7616 11.6547 37.1386C11.0711 36.6003 8.8995 35.888 8.8995 33.4441C8.8995 31.0028 11.0662 30.2925 11.6547 29.7497C14.0333 28.1269 14.8536 25.0658 13.605 22.4709C13.3711 21.7205 11.844 20.0103 13.0662 17.8939C14.2868 15.7797 16.5184 16.2478 17.2995 16.072C20.1708 15.8559 22.4118 13.615 22.6279 10.7436C22.8006 9.97672 22.3333 7.73219 24.4498 6.51031C26.5642 5.28984 28.2625 6.81094 29.0268 7.04922C31.6161 8.295 34.6793 7.48234 36.3056 5.09891C36.8386 4.52109 37.5561 2.34375 40 2.34375C42.4412 2.34375 43.1517 4.51047 43.6945 5.09891C45.3173 7.4775 48.3789 8.29766 50.9732 7.04922C51.7237 6.81516 53.4339 5.28828 55.5503 6.51031C57.6645 7.73094 57.1964 9.9625 57.3722 10.7436C57.5882 13.6148 59.8292 15.8559 62.7006 16.072C63.4751 16.2464 65.7118 15.7775 66.9339 17.8939C68.1545 20.0081 66.6332 21.7066 66.395 22.4709C65.1464 25.0658 65.9667 28.1269 68.3453 29.7497C68.9231 30.2827 71.1006 31.0002 71.1006 33.4441C71.1004 35.8852 68.9336 36.5956 68.3451 37.1384Z" fill="black"/>
<path d="M39.9999 10.5906C27.3985 10.5906 17.1465 20.8426 17.1465 33.444C17.1465 46.0454 27.3985 56.2976 39.9999 56.2976C45.5257 56.2976 50.8593 54.2992 55.0182 50.6704C59.1366 47.077 61.8348 42.1343 62.6155 36.7526C62.7085 36.1121 62.2646 35.5176 61.6241 35.4248C60.9838 35.3323 60.3893 35.7757 60.2963 36.4162C58.8387 46.4626 50.1843 53.954 39.9999 53.954C28.6907 53.954 19.4901 44.7534 19.4901 33.4442C19.4901 22.135 28.6907 12.9342 39.9999 12.9342C50.4713 12.9342 59.2346 20.7704 60.3843 31.1618C60.4555 31.8051 61.034 32.2681 61.6779 32.1976C62.3212 32.1264 62.7849 31.5473 62.7137 30.904C61.4324 19.3235 51.6677 10.5906 39.9999 10.5906Z" fill="black"/>
<path d="M55.1803 29.9773C55.3751 28.8996 54.4321 27.956 53.355 28.1521C52.0556 28.3873 48.8231 29.1065 45.752 30.8451C44.9687 26.1555 42.4768 22.1363 41.3385 20.4949C40.6909 19.5615 39.3089 19.5616 38.6612 20.4951C37.5229 22.1365 35.0311 26.1557 34.2478 30.8451C31.1767 29.1065 27.9442 28.3873 26.6451 28.1521C25.5648 27.9571 24.6245 28.9015 24.8195 29.9773C25.5889 34.2285 27.5871 39.0054 30.9395 41.811H27.1104C26.4632 41.811 25.9387 42.3357 25.9387 42.9827C25.9387 43.6298 26.4634 44.1545 27.1104 44.1545H52.8896C53.5368 44.1545 54.0614 43.6298 54.0614 42.9827C54.0614 42.3357 53.5367 41.811 52.8896 41.811H49.0603C52.4131 39.0049 54.4107 34.2277 55.1803 29.9773ZM39.9998 22.7215C41.1739 24.588 43.189 28.3012 43.581 32.2954C41.9986 33.5437 40.7982 34.9952 39.9998 36.6176C39.2014 34.9954 38.001 33.5437 36.4185 32.2954C36.8104 28.3013 38.8259 24.5879 39.9998 22.7215ZM27.3673 30.6974C33.3979 32.1249 38.8276 35.6085 38.8281 41.7849V41.811H35.8346C30.2653 40.2573 28.0776 33.6535 27.3673 30.6974ZM41.1715 41.8109V41.7848C41.172 35.6184 46.586 32.1284 52.6323 30.6973C51.9221 33.6529 49.7346 40.257 44.165 41.8109H41.1715Z" fill="black"/>
</g>
<defs>
<clipPath id="clip0_483_5689">
<rect width="80" height="80" fill="white"/>
</clipPath>
</defs>
</svg>
