<svg width="34" height="34" viewBox="0 0 34 34" fill="none" xmlns="http://www.w3.org/2000/svg">
<g clip-path="url(#clip0_548_1704)">
<path d="M2.12654 2.3131C-0.54529 5.08835 0.00154367 8.03643 0.00154367 16.9926C0.00154367 24.4301 -1.29612 31.886 5.49538 33.6413C7.61613 34.1867 26.4068 34.1867 28.5247 33.6384C31.3524 32.9088 33.653 30.6153 33.9675 26.616C34.0115 26.0578 34.0115 7.93726 33.9661 7.36776C33.6318 3.10785 31.0095 0.652763 27.5543 0.155513C26.7624 0.0407625 26.6037 0.0067625 22.5407 -0.000320833C8.12896 0.0067625 4.96979 -0.634988 2.12654 2.3131Z" fill="url(#paint0_linear_548_1704)"/>
<path d="M16.997 4.44693C11.8531 4.44693 6.9684 3.98935 5.10265 8.77768C4.33198 10.7553 4.4439 13.3238 4.4439 17.0014C4.4439 20.2286 4.34049 23.2617 5.10265 25.2238C6.96415 30.0149 11.8885 29.5559 16.9942 29.5559C21.9199 29.5559 26.9987 30.0688 28.8871 25.2238C29.6592 23.2263 29.5458 20.6961 29.5458 17.0014C29.5458 12.0969 29.8164 8.93068 27.4378 6.55351C25.0295 4.14518 21.7726 4.44693 16.9913 4.44693H16.997ZM15.8722 6.70935C26.602 6.69235 27.9677 5.49952 27.214 22.0703C26.9462 27.931 22.4837 27.2878 16.9984 27.2878C6.99673 27.2878 6.70915 27.0017 6.70915 16.9958C6.70915 6.87368 7.50249 6.71501 15.8722 6.70651V6.70935ZM23.6978 8.79326C22.8662 8.79326 22.1919 9.4676 22.1919 10.2992C22.1919 11.1308 22.8662 11.8051 23.6978 11.8051C24.5294 11.8051 25.2037 11.1308 25.2037 10.2992C25.2037 9.4676 24.5294 8.79326 23.6978 8.79326ZM16.997 10.5542C13.4369 10.5542 10.5512 13.4413 10.5512 17.0014C10.5512 20.5615 13.4369 23.4473 16.997 23.4473C20.5571 23.4473 23.4414 20.5615 23.4414 17.0014C23.4414 13.4413 20.5571 10.5542 16.997 10.5542ZM16.997 12.8166C22.5291 12.8166 22.5362 21.1863 16.997 21.1863C11.4663 21.1863 11.4578 12.8166 16.997 12.8166Z" fill="white"/>
</g>
<defs>
<linearGradient id="paint0_linear_548_1704" x1="2.19174" y1="31.8281" x2="33.7911" y2="4.47915" gradientUnits="userSpaceOnUse">
<stop stop-color="#FFDD55"/>
<stop offset="0.5" stop-color="#FF543E"/>
<stop offset="1" stop-color="#C837AB"/>
</linearGradient>
<clipPath id="clip0_548_1704">
<rect width="34" height="34" fill="white"/>
</clipPath>
</defs>
</svg>
