<svg width="34" height="34" viewBox="0 0 34 34" fill="none" xmlns="http://www.w3.org/2000/svg">
<rect width="34" height="34" rx="6" fill="#F44336"/>
<g clip-path="url(#clip0_548_1714)">
<path d="M17.3531 4C5.10172 4.00108 4.0628 17.1159 9.79363 19.6488C10.383 19.9142 10.305 19.5903 10.812 17.6511C10.852 17.4897 10.8315 17.3499 10.7015 17.1993C7.7483 13.7836 10.1251 6.76142 16.9317 6.76142C26.7825 6.76142 24.9419 20.3919 18.6455 20.3919C17.0227 20.3919 15.8137 19.1179 16.1961 17.5417C16.6598 15.6643 17.5676 13.646 17.5676 12.2929C17.5676 8.88258 12.4868 9.3885 12.4868 13.9071C12.4868 15.3035 12.9808 16.246 12.9808 16.246C12.9808 16.246 11.346 22.85 11.0427 24.0839C10.6939 25.5009 10.865 30.7237 11.475 29.9242C11.6364 29.7129 13.6124 26.8941 14.166 24.8563C14.3675 24.1143 15.194 21.1026 15.194 21.1026C15.739 22.0863 17.3098 22.9096 18.9836 22.9096C23.9626 22.9096 27.5614 18.5329 27.5614 13.1022C27.5441 7.89567 23.0883 4 17.3531 4V4Z" fill="white"/>
</g>
<defs>
<clipPath id="clip0_548_1714">
<rect x="4" y="4" width="26" height="26" rx="6" fill="white"/>
</clipPath>
</defs>
</svg>
