<svg width="18" height="18" viewBox="0 0 18 18" fill="none" xmlns="http://www.w3.org/2000/svg">
<path d="M16.6867 2.61291C15.7989 1.60555 14.5673 1.05078 13.2188 1.05078C11.3221 1.05078 10.1214 2.18352 9.44807 3.13379C9.27337 3.38037 9.12477 3.62763 9 3.86029C8.87523 3.62763 8.72666 3.38037 8.55193 3.13379C7.87862 2.18352 6.67786 1.05078 4.78125 1.05078C3.43273 1.05078 2.2011 1.60558 1.31326 2.61295C0.466418 3.57391 0 4.86091 0 6.23686C0 7.73462 0.584754 9.12768 1.84025 10.6208C2.96234 11.9554 4.57661 13.331 6.4459 14.9239C7.14245 15.5174 7.86277 16.1313 8.62963 16.8022L8.65266 16.8224C8.75208 16.9094 8.87604 16.9529 9 16.9529C9.12396 16.9529 9.24792 16.9094 9.34734 16.8224L9.37037 16.8022C10.1372 16.1313 10.8576 15.5175 11.5542 14.9238C13.4234 13.331 15.0377 11.9554 16.1597 10.6208C17.4152 9.12765 18 7.73462 18 6.23686C18 4.86091 17.5336 3.57391 16.6867 2.61291ZM10.8701 14.1211C10.2696 14.6328 9.65162 15.1594 9 15.7258C8.34841 15.1594 7.7304 14.6328 7.12983 14.121C3.4715 11.0036 1.05469 8.94413 1.05469 6.23686C1.05469 5.11783 1.42752 4.07847 2.10452 3.31027C2.7893 2.53336 3.73989 2.10547 4.78125 2.10547C6.22719 2.10547 7.16189 2.99626 7.69134 3.74354C8.16627 4.41376 8.41409 5.08939 8.4986 5.34874C8.5693 5.56583 8.7717 5.71275 9 5.71275C9.2283 5.71275 9.4307 5.56583 9.5014 5.34874C9.58591 5.08939 9.83373 4.41376 10.3087 3.7435C10.8381 2.99626 11.7728 2.10547 13.2188 2.10547C14.2601 2.10547 15.2107 2.53336 15.8954 3.31027C16.5725 4.07847 16.9453 5.11783 16.9453 6.23686C16.9453 8.94413 14.5285 11.0036 10.8701 14.1211Z" fill="#6E6E6E"/>
</svg>
