<svg width="40" height="40" viewBox="0 0 40 40" fill="none" xmlns="http://www.w3.org/2000/svg">
<g clip-path="url(#clip0_536_689)">
<path d="M10.8346 31.6667H7.5013C7.0413 31.6667 6.66797 31.2933 6.66797 30.8333C6.66797 30.3733 7.0413 30 7.5013 30H10.8346C11.2946 30 11.668 30.3733 11.668 30.8333C11.668 31.2933 11.2946 31.6667 10.8346 31.6667Z" fill="#6E6E6E"/>
<path d="M37.9176 31.668H35.8342C35.3742 31.668 35.0009 31.2946 35.0009 30.8346C35.0009 30.3746 35.3742 30.0013 35.8342 30.0013H37.2259L38.3492 24.0146C38.3342 20.9513 35.7176 18.3346 32.5009 18.3346H27.0292L24.3776 30.0013H29.1676C29.6276 30.0013 30.0009 30.3746 30.0009 30.8346C30.0009 31.2946 29.6276 31.668 29.1676 31.668H23.3342C23.0809 31.668 22.8409 31.553 22.6826 31.3546C22.5242 31.158 22.4642 30.898 22.5209 30.6513L25.5509 17.318C25.6376 16.9363 25.9742 16.668 26.3642 16.668H32.5009C36.6359 16.668 40.0009 20.033 40.0009 24.168L38.7359 30.988C38.6626 31.383 38.3192 31.668 37.9176 31.668Z" fill="#6E6E6E"/>
<path d="M32.4987 35.0013C30.202 35.0013 28.332 33.133 28.332 30.8346C28.332 28.5363 30.202 26.668 32.4987 26.668C34.7954 26.668 36.6654 28.5363 36.6654 30.8346C36.6654 33.133 34.7954 35.0013 32.4987 35.0013ZM32.4987 28.3346C31.1204 28.3346 29.9987 29.4563 29.9987 30.8346C29.9987 32.213 31.1204 33.3346 32.4987 33.3346C33.877 33.3346 34.9987 32.213 34.9987 30.8346C34.9987 29.4563 33.877 28.3346 32.4987 28.3346Z" fill="#6E6E6E"/>
<path d="M14.1667 35.0013C11.87 35.0013 10 33.133 10 30.8346C10 28.5363 11.87 26.668 14.1667 26.668C16.4633 26.668 18.3333 28.5363 18.3333 30.8346C18.3333 33.133 16.4633 35.0013 14.1667 35.0013ZM14.1667 28.3346C12.7883 28.3346 11.6667 29.4563 11.6667 30.8346C11.6667 32.213 12.7883 33.3346 14.1667 33.3346C15.545 33.3346 16.6667 32.213 16.6667 30.8346C16.6667 29.4563 15.545 28.3346 14.1667 28.3346Z" fill="#6E6E6E"/>
<path d="M10.832 16.6667H4.16536C3.70536 16.6667 3.33203 16.2933 3.33203 15.8333C3.33203 15.3733 3.70536 15 4.16536 15H10.832C11.292 15 11.6654 15.3733 11.6654 15.8333C11.6654 16.2933 11.292 16.6667 10.832 16.6667Z" fill="#6E6E6E"/>
<path d="M10.8346 21.6667H2.5013C2.0413 21.6667 1.66797 21.2933 1.66797 20.8333C1.66797 20.3733 2.0413 20 2.5013 20H10.8346C11.2946 20 11.668 20.3733 11.668 20.8333C11.668 21.2933 11.2946 21.6667 10.8346 21.6667Z" fill="#6E6E6E"/>
<path d="M10.8333 26.6667H0.833333C0.373333 26.6667 0 26.2933 0 25.8333C0 25.3733 0.373333 25 0.833333 25H10.8333C11.2933 25 11.6667 25.3733 11.6667 25.8333C11.6667 26.2933 11.2933 26.6667 10.8333 26.6667Z" fill="#6E6E6E"/>
<path d="M23.3346 31.668H17.5013C17.0413 31.668 16.668 31.2946 16.668 30.8346C16.668 30.3746 17.0413 30.0013 17.5013 30.0013H22.6696L26.4563 13.3346H7.5013C7.0413 13.3346 6.66797 12.9613 6.66797 12.5013C6.66797 12.0413 7.0413 11.668 7.5013 11.668H27.5013C27.7546 11.668 27.9946 11.783 28.153 11.9813C28.3113 12.178 28.3713 12.438 28.3146 12.6846L24.148 31.018C24.0613 31.3996 23.723 31.668 23.3346 31.668Z" fill="#6E6E6E"/>
</g>
<defs>
<clipPath id="clip0_536_689">
<rect width="40" height="40" fill="white"/>
</clipPath>
</defs>
</svg>
